<?xml version="1.0" encoding="UTF-8"?>
<svg id="Layer_2" data-name="Layer 2" xmlns="http://www.w3.org/2000/svg" viewBox="0 0 269.51 249.19">
  <defs>
    <style>
      .cls-1 {
        fill: none;
        stroke: #fff;
        stroke-miterlimit: 10;
      }

      .cls-2 {
        fill: #fff;
        stroke-width: 0px;
      }
    </style>
  </defs>
  <g id="Layer_1-2" data-name="Layer 1">
    <g>
      <path class="cls-2" d="m90.88,140.71c-.2-2.89-1.49-5.54-3.54-7.28-1.42-1.21-3.09-1.99-4.85-2.28-.97-.15-1.95-.15-2.93,0-1.15.19-2.25.63-3.25,1.3-1.49.95-2.63,2.49-3.2,4.33-.18.59-.28,1.2-.31,1.82-.14,3.22,1.9,6.03,4.71,6.5.81.16,1.63.13,2.42-.1.67-.2,1.3-.56,1.83-1.07.71-.7,1.17-1.78,1.13-2.63-.03-.48-.16-.95-.36-1.38-.22-.6-.62-1.1-1.13-1.4-.37-.23-.8-.33-1.22-.29-.3,0-.6.05-.88.17-.59.17-1.08.65-1.3,1.3-.05.17-.07.34-.06.52-.01.17,0,.33.05.49.06.21.16.41.29.59l.11.15-.09-.02c-.23-.03-.46-.09-.69-.16-.21-.09-.41-.24-.56-.43-.47-.52-.71-1.25-.65-1.99.06-.96.41-1.86,1-2.55.69-.77,1.58-1.29,2.53-1.47.59-.11,1.19-.13,1.78-.06,2.52.33,4.55,2.15,5.25,4.72.36,1.36.35,2.82-.04,4.17-.77,2.75-2.83,4.88-5.6,5.78-1.36.43-2.79.56-4.2.37-1.23-.17-2.42-.57-3.53-1.19-.99-.52-1.89-1.23-2.68-2.1-1.18-1.28-2.04-2.89-2.48-4.66-.81-3.23-.18-6.85,1.7-9.78.69-1.06,1.52-1.99,2.45-2.78,1.8-1.47,3.87-2.44,6.06-2.84.74-.15,1.5-.22,2.25-.23,1.35-.04,2.69.13,4,.49.45.12.92.06,1.34-.17.78-.39,1.14-1.42.8-2.31-.19-.48-.55-.84-1-.98-.8-.25-1.62-.43-2.45-.55-.68-.1-1.36-.15-2.04-.16-2.68-.07-5.35.51-7.82,1.69-.38.18-1.25.67-1.59.88-2.17,1.33-4.02,3.24-5.4,5.56-1.02,1.72-1.73,3.66-2.06,5.7-.12.75-.19,1.5-.2,2.26-.05,2.7.6,5.36,1.88,7.63.52.93,1.13,1.79,1.82,2.56.59.69,1.25,1.31,1.95,1.84,3.11,2.34,6.88,3.3,10.57,2.69,3.14-.53,5.97-2.26,7.83-4.79,1.51-2.02,2.35-4.58,2.36-7.23,0-.22-.02-.5-.02-.64Z"/>
      <path class="cls-2" d="m178,141.88c1.58,2.27,4.05,3.76,6.8,4.08,1.91.22,3.85-.04,5.63-.77.97-.4,1.89-.94,2.72-1.59.98-.78,1.81-1.75,2.42-2.85.94-1.6,1.26-3.49.91-5.31-.11-.58-.31-1.15-.59-1.67-1.41-2.74-4.67-3.95-7.53-2.8-.83.31-1.59.79-2.22,1.41-.53.53-.94,1.17-1.2,1.88-.33.97-.24,2.11.21,2.79.26.38.6.7,1,.94.5.38,1.11.57,1.73.54.46-.01.91-.16,1.28-.43.28-.16.53-.37.74-.62.47-.46.69-1.13.59-1.78-.03-.16-.1-.32-.19-.46-.07-.15-.17-.28-.28-.38-.16-.14-.35-.25-.55-.33l-.18-.07.09-.04c.23-.1.46-.18.7-.25.24-.04.5-.02.73.05.69.17,1.26.65,1.55,1.29.41.82.51,1.76.29,2.65-.28,1.01-.85,1.92-1.66,2.59-.5.41-1.05.75-1.64,1.02-2.51,1.1-5.28.7-7.18-1.03-.99-.93-1.68-2.13-1.96-3.46-.61-2.69.3-5.57,2.46-7.82,1.07-1.1,2.35-1.97,3.75-2.58,1.23-.54,2.55-.87,3.89-.97,1.18-.11,2.37-.01,3.52.27,1.72.41,3.3,1.27,4.57,2.49,2.31,2.22,3.47,5.56,3.11,9-.14,1.25-.46,2.47-.95,3.63-.97,2.19-2.45,4.12-4.3,5.63-.62.52-1.29.99-1.99,1.41-1.24.77-2.58,1.37-3.98,1.78-.48.14-.89.45-1.17.87-.55.74-.38,1.79.36,2.34.4.29.91.39,1.4.27.87-.23,1.73-.53,2.56-.89.68-.29,1.34-.61,1.99-.98,2.54-1.41,4.75-3.34,6.5-5.66.26-.35.85-1.23,1.06-1.6,1.39-2.28,2.2-4.86,2.37-7.53.13-1.98-.15-3.96-.82-5.83-1.12-3.13-3.38-5.72-6.33-7.25-.93-.49-1.92-.86-2.93-1.12-.89-.24-1.8-.39-2.71-.44-4.04-.24-8.02,1.02-11.18,3.54-2.68,2.15-4.5,5.12-5.02,8.22-.44,2.49,0,5.06,1.27,7.25.11.19.27.42.35.53Z"/>
      <g>
        <path class="cls-2" d="m256.89,177.23l-4.23,8.87-3.83,5.65c-.13,0-.27,0-.4-.07-.67-.13-1.28-.4-1.82-.87-3.76-3.16-8-5.58-12.1-8.34-1.34-.94-2.82-1.75-3.76-3.16-.94-1.55-1.21-3.16-.2-4.64.94-1.41,2.55-1.82,4.23-1.48,6.99,1.48,14.05,2.82,21.31,2.29.4.07.81.13,1.14.27,0,.07.07.07.07.13.4.61-.13.94-.4,1.34Z"/>
        <path class="cls-2" d="m38.02,180.72c-2.08,1.82-4.57,2.96-6.86,4.37-2.96,1.75-5.71,3.97-8.54,5.98-.34.2-.67.54-1.01.6-.13.07-.2.07-.34.07-3.23-3.63-5.51-7.86-7.33-12.3-.4-1.01-.74-2.02-1.08-2.96.13-.13.2-.27.34-.34.2-.2.4-.34.81-.27,4.91.87,9.68-.4,14.45-1.28l6.25-1.21h.13c2.42-.27,4.37.6,5.04,2.08.74,1.55,0,3.7-1.88,5.24Z"/>
        <path class="cls-2" d="m27,157.4c-.2,0-.4.07-.54.13-5.18,1.01-9.41,3.76-13.31,7.13-.54.47-.94,1.08-1.61,1.41-.13.07-.27.13-.47.2-.27-6.52.67-12.84,2.02-19.16.2-.74.27-1.55.74-2.15.13,0,.2-.07.34-.07.13-.07.34-.07.47-.13,2.42-.54,4.84-.27,7.26-.2.13,0,.2.07.27.13.2,0,.4.13.61.27.81,3.83,2.02,7.6,3.56,11.23.2.4.4.81.67,1.21Z"/>
        <path class="cls-2" d="m146.45,46.15v.47c0,.74-.07,2.15-.07,2.22-.27,7.33-.27,7.53-.27,7.8-.27,6.59-.94,12.77-5.65,23.93-.34.94-.81,1.82-1.41,2.62-2.15,2.82-5.31,2.76-7.26-.27-1.21-1.81-1.95-3.9-2.69-5.92-3.23-9.88-5.92-19.83-5.78-30.38v-.54c7.73-.54,15.46-.54,23.12.07Z"/>
        <path class="cls-2" d="m114.85,74.72c-.13,2.02-.13,4.03-.67,5.98-.6,2.42-2.62,2.96-4.57,1.41-1.28-1.01-2.08-2.35-2.89-3.76-2.89-5.04-4.64-10.42-5.98-16-.81-3.29-1.68-6.59-2.08-10.02-.07-.74-.13-1.34.2-1.88.07-.13.2-.34.4-.47,3.83-1.41,7.86-1.82,11.83-2.49.87-.13,1.81-.2,2.76-.34.07.13.07.34.07.47.13.34.13.61.2.94.07,8.74,1.01,17.41.74,26.15Z"/>
        <path class="cls-2" d="m171.12,54.75c-1.01,8.13-3.43,16-7.26,23.32-.67,1.34-1.61,2.55-2.69,3.63-.87.87-2.02,1.48-3.23,1.08-1.14-.4-1.75-1.48-1.95-2.76-.67-3.56-.47-7.19-.27-10.75.34-7.33.27-14.52.2-21.78-.07-.13-.07-.27.07-.34v-.07c5.11.27,10.02,1.48,14.92,2.82.13.2.27.34.27.54.74,1.41.13,2.96-.07,4.3Z"/>
        <path class="cls-2" d="m14.16,144.89c-.13,0-.2.07-.34.07-.47.6-.54,1.41-.74,2.15-1.34,6.32-2.29,12.64-2.02,19.16.2-.07.34-.13.47-.2.13-2.22,0-4.44.2-6.65.34-4.03,1.08-8.07,1.75-12.03.2-.81.4-1.68.67-2.49Z"/>
        <path class="cls-2" d="m12.55,121.5c3.29,1.68,3.83,1.55,4.97,2.55.67.61,1.55,1.61,2.02,3.36.07-.2.07-.34.07-.47-.07-.67-.34-1.28-.74-1.88-1.08-1.48-2.29-2.89-4.3-3.36-2.02-.47-3.7-1.48-4.7-3.36-2.08-3.9-.67-9.41,3.02-11.83.61-.34,1.88-.81,3.09-1.14,2.29-.67,2.96-.4,3.43-.81.13-.07.27-.27.34-.47v-.07c.2-.4.27-.87.2-1.55-.54,1.01-.74,1.48-.61,1.68-1.55.34-3.23.74-3.83.87-6.12,1.48-7.73,6.65-6.65,11.83.4,2.29,1.82,3.63,3.7,4.64Z"/>
        <path class="cls-2" d="m123.32,46.08v.54h.27c7.53-.47,15.06-.47,22.59,0h.27v-.47c-7.66-.61-15.39-.61-23.12-.07Z"/>
        <path class="cls-2" d="m256.62,106.24c-1.08-.74-2.02-.94-3.5-1.34-.61-.13-1.21-.27-1.88-.4.4.74,1.68.81,2.42.94,3.23.54,7.06,4.7,6.59,8.54-.54,5.04-1.34,7.33-6.92,8-2.29.27-3.63,1.75-4.03,4.03.07.2.13.34.27.47,0,.07.07.07.07.13v-.2c.67-2.76,1.95-3.83,4.71-4.1,1.95-.2,4.03-.74,4.84-2.35.81-1.48,1.28-3.02,1.48-4.64.4-3.76-1.14-7.26-4.03-9.07Z"/>
        <path class="cls-2" d="m269.33,63.69c.4-9.21.2-18.42-1.01-27.56-1.08-7.73-2.83-15.19-6.39-22.12-3.43-6.78-8.87-11.15-16.13-13.17-6.05-1.68-11.9-.67-17.61,1.41-11.43,4.24-21.24,11.23-30.38,19.16-7.06,6.18-13.58,12.9-19.5,20.23-.47.61-.67.94-1.68.61-10.01-3.36-20.5-4.98-30.99-5.65-9.88-.61-19.69-.54-29.5.6-8.34.95-16.47,2.42-24.41,5.11-.8.27-1.14.14-1.61-.47-2.42-2.89-4.7-5.85-7.26-8.6-10.42-11.36-22.05-21.17-35.83-28.3C41.79,2.25,36.28.37,30.43.03,18.74-.5,10.47,6.55,6.17,16.77,1.86,27.12.59,38.08.12,49.1c-.41,10.96.26,21.98,2.15,32.74.67,4.3,1.34,8.67,2.75,12.84,1.15,2.35,1.41,5.04,2.49,7.46.13.54.07,1.14-.27,1.61-.2.27-.47.47-.74.54-2.35,1.14-3.96,2.89-4.7,5.44-.88,2.89-1.01,6.05-.21,9.08,1.08,4.1,3.23,7.59,7.4,9.41.2.13.4.33.54.54.2.6-.34,1.27-.41,1.41-1.14,1.54-6.11,17.74-7.39,27.09-.34,2.89-1.48,10.62,1.28,19.69,2.15,7.33,5.91,13.85,10.48,19.97,4.57,6.11,9.95,11.62,15.87,16.53,2.89,2.35,5.98,4.57,9.07,6.66l.4.43c.5.31.43.55.95.79,1.14.43,2.12,1.05,3.17,1.58,2.1.65,3.69,1.13,5.48,2.14.28.11.31.06.58.18.09-.07.79.32.91.32.34-.07.61.27.95.4,1.41.74,2.75,1.48,4.16,2.22l1.01.41.74.26c1.68.61,24.6,9.89,30.72,11.7.07.07.2.07.34.13.94.27,1.88.61,2.82.88,4.91,1.48,9.75,3.16,14.79,4.3,7.59,1.68,15.32,2.76,23.05,3.16,9.08.47,18.15,0,27.09-1.48,7.53-1.28,14.99-3.09,22.25-5.58,11.9-3.96,23.86-8.4,35.9-13.51l2.48-1.01c1.01-.79,1.94-.93,2.86-.82.56-.26,1.24-.37,1.83-.59,1.31-.71,2.8-1.19,4.27-1.71.88-.52,1.81-1.01,2.77-1.45.63-.53,1.23-1.09,1.96-1.52,6.72-4.42,13.01-9.52,18.58-15.35,7.06-7.19,12.97-15.19,16.87-24.53,3.7-8.07,3.9-16.47,2.49-25.01-.74-4.97-1.82-9.81-3.16-14.59-1.28-4.3-2.83-8.47-4.64-12.57v-.6c.13-.14.2-.34.34-.4,4.84-2.22,7.59-6.12,8.4-11.23.33-2.15,1.21-7.39-2.22-10.82-1.28-1.21-2.82-2.09-4.5-2.42-.21-.61-.27-1.28-.21-1.88.07-.81,2.16-6.26,2.76-8.41,2.76-9.74,4.17-19.76,4.71-29.84Zm-8.68,51.62c-.2,1.62-.67,3.16-1.47,4.64-.81,1.61-2.89,2.15-4.84,2.35-2.76.27-4.04,1.35-4.71,4.1v.2c.2.34.34.74.61,1.08,1.68,3.16,2.42,5.71,3.09,8.13.67,2.09,1.48,4.91,2.69,8.81.06.13.06.2.13.34.81,2.68,1.28,4.97,1.68,6.78,1.75,8.27.94,10.96,1.21,11.97.07.27.07.6-.07.87-.06.07-.13.14-.2.14.07,1.01.07,1.88.07,2.82v2.15c-.07.41-.2.81-.27,1.14-.4,1.69-.6,3.5-1.28,5.05.41.6-.13.94-.4,1.34l-4.23,8.87-3.84,5.65c-.13,0-.27,0-.4-.07-6.72,8.2-14.59,15.46-23.26,21.44-4.43,3.1-9.07,5.92-13.91,8.41-7.06,3.63-14.25,6.99-21.91,9.34-4.1,1.68-8.34,2.82-12.57,3.97-10.89,3.09-21.92,5.37-33.14,6.38-4.3.34-8.67.47-12.98.34-.8-.07-1.68.13-2.42-.2-2.75-.2-5.51-.68-8.26-.88-14.25-1.74-27.97-5.85-41.54-10.48-1.15-.41-2.22-.74-3.37-1.21-9.54-3.7-18.55-8.47-27.22-13.92-5.38-3.43-10.49-7.26-15.26-11.49-3.96-3.56-7.86-7.26-10.95-11.7-.14.07-.21.07-.34.07-3.23-3.63-5.51-7.86-7.33-12.3-.4-1.01-.74-2.02-1.07-2.96.13-.13.2-.27.33-.34v-.06c-1-3.3-1.88-6.52-1.68-10.02-.13.07-.27.14-.47.2-.27-6.52.67-12.83,2.02-19.15.2-.74.27-1.55.74-2.15.13,0,.2-.07.33-.07.48-1.95.95-3.83,1.48-5.78,2.15-5.51,3.57-9.68,3.84-10.89.06-.27.13-.54.06-.81-.47-1.75-1.34-2.75-2.01-3.36-1.15-1.01-1.69-.87-4.98-2.55-1.88-1.01-3.29-2.36-3.7-4.64-1.07-5.18.54-10.35,6.66-11.83.6-.14,2.28-.54,3.83-.88-.13-.2.07-.67.61-1.68q-.07-.06,0-.06c-.21-4.04-3.77-12.1-6.86-14.59-2.02-9.81-3.09-19.7-3.29-29.71-.14-6.39-.14-12.84.6-19.22.74-5.99,1.82-11.9,4.03-17.48,1.08-2.62,2.15-5.24,4.37-7.19,1.82-1.15,3.23-2.83,5.38-3.36,2.69-1.28,5.45-.88,8.27-.48,2.96.68,5.85,1.69,8.6,2.96.81.34,1.62.67,2.42,1.08,6.52,3.36,12.44,7.59,18.15,12.23,4.64,3.7,8.87,7.8,12.97,11.97,3.84,3.89,7.47,8,11.03,12.23,2.35,2.82,3.9,3.09,7.26,1.55,1.95-.81,3.96-1.55,5.98-1.95.07-.14.2-.34.4-.47,3.83-1.42,7.87-1.82,11.83-2.49.88-.14,1.82-.2,2.76-.34.07.14.07.34.07.47h.06c3.1-.33,6.19-.67,9.35-1v-.54c7.73-.54,15.46-.54,23.12.06v.48c1.01.2,1.95.26,3.03.33,2.08,0,4.23.34,6.38.54h.07c-.07-.14-.07-.27.07-.34v-.06c5.1.26,10.01,1.47,14.92,2.82.13.2.27.34.27.54,2.28.47,4.43,1.14,6.58,2.08,2.69,1.08,3.7.87,5.65-1.21.47-.54.81-1.01,1.21-1.55,3.09-4.03,6.45-7.86,10.02-11.49,3.09-3.16,6.31-6.18,9.74-9.01,5.85-4.84,11.83-9.54,18.62-13.1,2.83-1.69,5.78-3.1,8.87-4.24,1.21-.54,2.49-.94,3.84-1.14,2.28-.81,4.63-.81,6.99-.74,2.08.33,3.83,1.28,5.51,2.49,2.15,1.47,3.36,3.69,5.17,5.44,1.48,2.35,2.49,4.97,3.3,7.6,2.42,7.66,3.02,15.59,3.29,23.52.14,6.46-.07,12.84-.67,19.23-.34,5.04-1.01,9.94-2.02,14.85-.8,3.97-1.81,7.8-3.09,11.63-.87,2.56-1.28,5.38-2.62,7.8-.2.27-.67,1.07-.34,1.81v.07c.68.13,1.28.27,1.89.4,1.47.41,2.42.61,3.49,1.35,2.89,1.81,4.44,5.31,4.03,9.07Z"/>
        <path class="cls-2" d="m256.62,106.24c-1.08-.74-2.02-.94-3.5-1.34-.61-.13-1.21-.27-1.88-.4v-.07c-.54-.07-1.14-.2-1.75-.34-2.22-.47-4.84-.94-7.86-1.41h-.2c-1.41-.34-2.89-.27-4.3-.67-2.96-.07-5.92-.67-8.94-.87-4.84-.34-9.68-1.01-14.59-.94-9.01.07-18.01-.34-27.02.34-3.16.27-6.32.4-9.48,1.01-4.64.54-9.14,1.82-13.51,3.36-2.49,1.08-5.04,2.08-7.39,3.5-2.02,1.21-3.83,2.96-6.18,3.63-1.95.61-3.9.94-5.92.87-5.85.07-11.63,0-17.48,0-1.75,0-3.43.07-5.11-.4-.2-.07-.34-.07-.54-.13-.47-.07-.94-.13-1.41-.27-.47-.27-1.01-.47-1.61-.67-.47-.2-.94-.54-1.34-.87-5.18-3.5-10.96-5.71-16.94-7.26-3.9-1.01-7.86-1.68-11.76-2.35-5.11-.4-10.22-.87-15.33-.74h-15.33c-8.34-.13-16.6.74-24.87,1.82-.4.13-.87.27-1.34.34-.67.07-1.28.07-1.88.2-1.34.07-2.96.34-6.65.87-.2,0-1.41.34-2.76.61-.13.07-.27.07-.4.13-1.55.34-3.23.74-3.83.87-6.12,1.48-7.73,6.65-6.65,11.83.4,2.29,1.82,3.63,3.7,4.64,3.29,1.68,3.83,1.55,4.97,2.55.67.61,1.55,1.61,2.02,3.36.13.4.27.87.34,1.41.07.81.2,1.41.34,2.15.27,1.68.47,3.43.67,5.18.34,2.82.54,5.78,1.28,8.54,0,.07.07.13.07.2,1.08,4.37,2.15,8.67,4.23,12.64.07,0,.07.07.07.07,2.69,4.97,6.39,9.28,10.89,12.64,4.84,3.56,10.22,5.78,16.07,7.06,2.69.6,5.38.87,8,1.41,5.71.54,11.49.74,17.21,0,.47-.13.94-.2,1.41-.27,13.11-1.88,24.13-7.39,32.13-18.35,1.48-2.02,2.42-4.3,3.97-6.25.47-.47.74-1.01.87-1.61.34-1.75,1.21-3.29,1.88-4.84.07-.2.13-.34.2-.47.67-2.02,1.28-4.03,2.02-6.05.07-.13.07-.27.13-.47.67-3.23,1.28-6.52,2.76-9.54.94-1.41,2.08-2.55,3.76-3.16,3.02-1.21,6.25-1.14,9.41-.87,1.75.13,3.63.4,5.18,1.55.13.13.27.2.4.34,1.41.81,2.42,2.15,2.82,3.63.54,1.55.94,3.09,1.21,4.64,1.48,7.13,4.1,13.91,7.8,20.23.34.4.61.81.94,1.28,5.24,7.6,12.03,13.24,20.7,16.67,4.5,1.81,9.21,2.69,13.98,3.63h.54c4.84.4,9.75.47,14.59.27,1.55-.47,3.23,0,4.77-.54,4.1-.61,8.13-1.41,11.96-2.96,9.14-3.56,16.2-9.48,20.84-17.88.67-1.21,1.28-2.49,1.81-3.76,1.28-2.89,1.88-6.05,2.55-9.07,0-.13.07-.2.07-.34.47-2.35.61-4.71,1.08-6.99.13-2.42.4-4.77.81-7.13.27-1.21.6-2.49.34-3.76v-.2c.67-2.76,1.95-3.83,4.71-4.1,1.95-.2,4.03-.74,4.84-2.35.81-1.48,1.28-3.02,1.48-4.64.4-3.76-1.14-7.26-4.03-9.07Zm-145.86,32.2c-.13.74-.27,1.28-.4,1.68-.4,2.22-.94,4.37-1.61,6.52-.81,2.69-1.61,5.44-3.09,8.2-1.95,3.43-4.57,6.45-7.8,8.74-2.35,1.95-4.91,3.5-7.66,4.71-4.17,1.82-7.6,2.22-12.17,2.76-4.57.54-9.21.67-13.78.34-5.18-.4-10.28-1.48-15.26-3.09-6.65-2.49-11.9-7.53-14.72-13.85-.07-.13-.2-.27-.27-.47-.27-.6-.54-1.28-.81-1.95-.07,0-.07-.07-.07-.13-.27-1.01-.6-2.08-.81-3.16-.13-.81-.27-1.68-.13-1.68.13-.07.27.27.4.54.54,1.48.94,3.02,1.48,4.5.2.54.47,1.08.74,1.61.34.67.81,1.01,1.55.81,2.08-.54,4.17-.94,6.12-1.68.74-.27,1.41-.67,1.95-1.21,1.14-1.14,1.08-2.35-.34-3.23-1.61-.94-3.36-1.61-5.24-2.02-1.95-.47-3.9-.74-5.92-.94-.54-.07-1.21,0-1.55-.67-.87-5.18-1.01-10.35-1.01-15.59.07-5.71.67-7.33,1.08-8.27,2.55-5.98,8.67-8.54,10.96-9.54,3.83-1.55,9.07-1.68,19.69-1.95,5.85-.2,11.9-.07,12.77,0,1.21,0,2.42,0,3.63.07,7.93.34,15.59.67,22.92,4.5,4.3,2.29,6.05,4.5,6.59,5.24,1.95,2.62,2.49,5.18,2.96,7.06,1.21,5.31.27,9.95-.2,12.17Zm128.45-12.17c-.13,2.42-.27,6.86-.4,15.46,0,.61-.07,1.14-.2,1.68-.07.47-.27,1.08-.4,1.55v.13c-.34.07-1.01.2-1.88.34-2.42.47-6.32,1.01-9.21,2.15-.54.2-1.01.54-1.48.94-1.48,1.28-1.55,2.76.27,3.7,2.69,1.41,5.51,2.89,8.81,1.95.27-.07.4.13.34.4-.13.27-.27.47-.4.74-1.61,2.82-3.63,5.31-5.98,7.39-6.12,5.58-12.97,7.06-16.54,7.86-5.31,1.14-9.95,1.01-15.66.87-3.29-.13-5.11-.34-5.78-.4-4.1-.47-8.13-1.48-12.03-3.09-2.42-1.08-7.8-3.29-12.23-8.4-4.97-5.85-6.05-12.03-7.53-20.43,0,0-1.34-7.53-.07-13.91.07-.27.13-.47.13-.61.67-2.89,1.48-4.3,1.88-5.04,1.28-1.95,2.96-3.63,4.97-4.84,2.76-1.75,5.44-2.29,10.76-3.36,2.82-.54,5.71-1.01,8.6-1.28,1.88-.13,3.83-.27,6.79-.47,1.48-.07,2.96-.2,4.5-.2h8.94c6.99-.07,13.91.74,20.7,2.35,4.57,1.08,6.05,1.88,7.33,2.82.94.81,1.82,1.75,2.62,2.76,1.01,1.34,3.09,4.17,3.16,8.27v.67Z"/>
        <path class="cls-2" d="m245.94,95.55c.63,1.42,1.27,2.88,1.89,4.38.61,1.44,1.19,2.87,1.75,4.28l-7.86-1.06c-4.39-10.1-11.04-18.45-19.65-25.25-1.11-.88-2.32-1.63-3.4-2.54-1.45-1.22-1.36-2.04.34-2.92,2.68-1.35,5.48-2.45,8.37-3.27,1.01-.3,2.04-.54,3.08-.81-2.29-1.71-6.61-2.45-10.94-1.92-2.45.3-4.91.6-7.37.87-.76.08-1.64.17-2.07-.62-.44-.79.09-1.5.49-2.13,1.61-2.51,3.83-4.48,6.05-6.41,2.71-2.36,5.51-4.61,8.63-7.18-4.18,1.22-8.16,3.01-11.85,5.32-1.66,1.06-2.88,1.81-3.29,2.08-2.83,1.82-5.76,3.49-8.77,5.01-.58.21-1.22.17-1.77-.11-.74-.46-.87-1.42-.92-1.98-.23-2.72.93-4.97,2.48-7.04,4.91-8.42,11.16-15.99,18.5-22.41,4.97-4.31,10.29-8.09,16.37-10.64,1.58-.66,3.22-1.14,4.9-1.44,1.98-.35,2.88.19,3.53,2.19-.35,1.48-1.75,1.69-2.82,2.13-3.75,1.53-7.12,3.69-10.43,5.96-2.2,1.5-4.1,3.37-6.21,4.97-2.71,2.54-5.34,5.16-7.86,7.89-2.57,3.07-5.3,6.03-7.69,9.55,3.81-2.28,7.48-4.37,11.41-5.95,3.13-1.26,6.31-2.33,9.75-2.23,3.31.09,4.8,2.45,3.41,5.42-.92,1.86-2.22,3.51-3.82,4.83-1.65,1.42-3.19,2.99-4.91,4.32-.49.49-1.06.9-1.54,1.66,2.57.08,5.12.39,7.63.93,1.59.45,3.12,1.09,4.56,1.9,3.48,2.03,3.58,6.32.18,8.44-1.71,1.06-3.67,1.61-5.51,2.39-1.65.71-1.69.78-.33,1.86,5.92,4.74,10.54,10.6,14.49,17.03.51.79.91,1.65,1.19,2.55Z"/>
        <path class="cls-2" d="m70.62,61c-.07,2.29-1.82,3.43-3.7,2.22-3.29-1.95-6.45-4.17-9.68-6.18-3.97-2.49-8-4.71-12.91-6.12,3.43,3.09,6.79,5.58,9.81,8.6,1.55,1.55,3.02,3.09,4.57,4.64.74.67,1.21,1.61.81,2.55-.47,1.01-1.55.6-2.42.54-4.3-.27-8.6-1.34-13.04-.67-1.68.2-3.29.61-4.97,1.88,3.43.74,6.86,1.75,10.08,3.16,1.14.47,2.62.67,2.82,2.08.13,1.34-1.28,1.88-2.29,2.49-4.44,3.02-10.28,6.99-17.21,18.55-2.02,3.29-2.96,7.19-3.29,7.73l-.07.07c-.34.4-1.08.47-3.7.74-2.22.2-3.02.34-3.76.47-.4.07-.81.13-1.21.2-.34.07-.6.13-.74.13-.27.07-.34.13-.4.07-.13-.2.07-.67.61-1.68q-.07-.07,0-.07c.13-.34.27-.61.47-1.01.67-1.41.54-1.21.94-2.08.54-1.01,1.14-1.95,1.75-2.89.07-.13.13-.2.2-.34,1.75-2.62,3.36-5.38,4.1-6.59,3.36-5.18,12.37-12.84,14.86-14.92-2.08-.74-4.1-1.48-6.12-2.29-.67-.2-1.41-.54-2.08-.87-3.43-1.95-3.63-4.97-.47-7.26,4.17-3.02,8.94-3.29,13.98-3.16-3.56-3.63-8.13-6.12-10.96-10.35-1.41-1.34-1.75-2.96-.94-4.64.87-1.68,2.42-1.82,4.17-1.61,3.83.34,7.39,1.55,10.89,3.09,1.55.81,3.29,1.28,4.64,2.49l5.44,3.43q.07,0,.13-.07c.27-.47-.2-.74-.47-1.08-8.67-12.5-19.09-22.99-33.34-29.17-.54-.2-1.08-.54-1.55-.74.07-1.95.94-2.76,2.89-2.55,2.62.2,4.97,1.34,7.33,2.49,10.08,4.84,17.95,12.3,24.8,20.9,3.36,4.1,6.39,8.47,8.74,13.24.74,1.41,1.34,2.89,1.28,4.57Z"/>
        <path class="cls-2" d="m259.04,163.71c.07.27.07.6-.07.87-.07.07-.13.13-.2.13l-.07.07c-1.28-.54-2.49-1.21-3.63-2.02-1.08-.74-1.68-1.08-2.22-1.41-.6-.34-1.14-.61-1.28-.67-1.88-1.01-5.18-2.02-8.13-2.82-.07,0-.27-.13-.47-.2-.13-.07-.34-.2-.34-.4-.07,0-.07-.07,0-.07,0-.2.2-.34.81-1.48.4-.81.67-1.41.81-1.82.54-1.34,1.08-2.89,1.55-4.57s.81-3.23,1.08-4.64c.13.07.34.07.47.13.27.07.47.07.74.13,2.69.47,5.38.34,7.93-.34.07.13.07.2.13.34.81,2.69,1.28,4.97,1.68,6.79,1.75,8.27.94,10.96,1.21,11.97Z"/>
        <path class="cls-2" d="m234.61,155.3c-.94-.22-7.5-1.73-9.73-3.3-.8-.56-.95-1.06-1-1.32-.13-.68.22-1.42.95-2.13,2.2-2.13,5.14-2.48,7.91-3.19,1.77-.46,3.61-.46,5.44-.38-.45,3.65-1.67,7.17-3.58,10.31h0Z"/>
        <path class="cls-2" d="m31.37,144.77c1.81.2,9.51,1.1,12.77,3.12.53.33,1.54.97,1.65,1.96.09.77-.35,1.59-1.28,2.34-1.82,1.42-4.09,1.71-6.21,2.35-.12.02-.24.03-.35.04-1.36.14-2.76.24-2.99.24-1.78-.06-3.38-8.91-3.58-10.04Z"/>
        <path class="cls-2" d="m53.37,181.46c1.09.04,2.18.14,2.48,1.46s-.63,1.97-1.56,2.46c-2.05,1.06-4.32,1.55-6.53,2.13-4.2,1.14-7.98,3.17-11.83,5.09-.84.42-1.71.79-2.6,1.11-.96.35-1.87.27-2.5-.68-.63-.95-.08-1.72.52-2.37,1.74-1.9,3.94-3.19,6.22-4.3,4.67-2.25,9.63-3.88,14.72-4.84.36-.04.71-.06,1.07-.05Z"/>
        <path class="cls-2" d="m238.22,191.51c-.52-.93-1.25-1.72-2.13-2.31-2.89-2.02-5.93-3.74-9.31-4.82-3.28-1.28-6.6-2.42-10.11-2.9-1.1-.15-2.26-.14-2.48,1.27-.19,1.24.16,2.33,1.62,2.65,1.17,1.15,2.8,1.24,4.22,1.79h0l.79.25,5.63,1.85h0c3.05,1.46,6.09,2.93,9.14,4.38.7.36,1.54.29,2.17-.19.81-.52.85-1.22.45-1.99Z"/>
        <path class="cls-2" d="m157.91,193.51c-.62.47-1.47.55-2.17.18-3.05-1.45-6.09-2.91-9.14-4.38l-5.63-1.85-.79-.25c-1.42-.56-3.05-.64-4.22-1.79-.23-.05-.44-.12-.62-.22-.12-.05-.23-.12-.33-.21-.01.01-.02,0-.03-.02-.05-.1-.1-.16-.18-.17.05.06.11.12.18.17,0,0,0,.02,0,.03-.19.14-.4.25-.6.36-2.05,1.06-4.32,1.55-6.53,2.13-4.2,1.13-7.98,3.17-11.83,5.09-.84.42-1.71.79-2.6,1.11-.95.35-1.87.27-2.5-.68-.63-.96-.08-1.72.52-2.38,1.74-1.89,3.94-3.19,6.22-4.3,3.91-1.88,8.01-3.33,12.24-4.31.17-.18.33-.37.48-.57.97-1.89,1.68-3.8,1.38-6.03-.04-.82-.55-1.54-1.31-1.85-1.95-.96-3.93-1.85-5.68-3.17-2.27-1.62-3.87-4.02-4.48-6.74-.8-3.65.71-6.44,4.28-7.58,6.92-2.18,13.86-2.3,20.75.18.98.36,2,.78,2.49,1.85,2.15,2.25,2.07,4.8.87,7.42-.84,1.82-2.2,3.28-3.67,4.61-1.46,1.65-3.47,2.39-5.42,3.17-1.07.42-1.42.92-1.57,2.13-.33,2.93.56,5.15,2.11,6.71,2.31.57,4.55,1.37,6.78,2.24,3.38,1.09,6.42,2.81,9.31,4.82.89.59,1.62,1.38,2.13,2.31.41.77.37,1.47-.45,1.99Z"/>
        <path class="cls-2" d="m135.34,185.2c-.1-.04-.21-.07-.31-.1-.01-.04-.02-.07-.04-.1,0-.01,0-.02,0-.03,0,.02.02.03.03.02.1.09.21.16.33.21Z"/>
        <path class="cls-1" d="m60.17,50.96c-3.7-5.82-8.56-10.64-13.48-15.37-5.04-4.85-10.64-8.96-17.03-11.83-1.3-.58-2.5-1.57-4.08-1.44-2.99,0-3.88,2.4-4.83,4.5-1.6,3.55-2.41,7.31-2.8,11.24-.4,4.08-1.22,8.12-1.25,12.25-.05,6.72.05,13.41,1.03,20.08,1.12,7.68,2.4,13.6,3.33,17.44.84,3.43,1.65,6.31,2.28,8.44.86-1.13,2.06-2.72,3.48-4.7l.41-.57c3.99-5.81,8.49-11.14,14.23-15.33,1.19-.87,1.09-1.31-.35-1.89-1.64-.66-3.27-1.33-4.94-1.92-1.29-.46-2.51-1.03-3.43-2.1-1.17-1.36-1.19-2.79,0-4.14,1.16-1.35,2.68-2.35,4.37-2.89,2.91-.98,5.97-1.43,9.04-1.34.5.02,1.18.3,1.45-.29.31-.71-.41-1.02-.82-1.4-3.32-3.07-7.17-5.57-9.96-9.2-1.23-1.32-1.63-3.19-.9-4.47.15-.26.34-.5.56-.71.81-.53,1.76-.78,2.72-.71.76.04,1.52.11,2.28.23l.2.03c1.09.2,2.16.43,3.22.71h.04l.13.04c1,.3,1.99.64,2.98.99.77.3,1.54.62,2.29.98.15.07.3.14.46.19.71.29,2,.95,4.47,2.51.98.96,2.25,1.48,3.41,2.17.71.43,1.61,1.53,2.27.89.8-.75-.31-1.66-.78-2.4Z"/>
        <path class="cls-1" d="m251.63,38.08c-.53-3.61-1.12-7.19-2.48-10.58-.94-2.37-2.08-4.61-4.7-5.58-.64.74-1.51,1.12-2.38,1.47-6.51,2.67-12.19,6.61-17.34,11.35-2.75,2.44-5.36,5.05-7.8,7.8h0c-3.15,3.36-6.19,6.81-8.85,11.22,3.35-2.09,6.3-3.77,9.35-5.29,3.65-1.82,7.41-3.34,11.49-3.81,1.88-.21,3.97-.33,4.97,1.73.96,1.96-.43,3.45-1.5,4.92-2.05,2.78-5.01,4.63-7.32,7.15l-2.8,2.58c3.41-.35,6.24.24,9.09.68,1.55.66,3.19,1.06,4.64,2.05,2.44,1.67,3.58,5.62-.15,7.59-.93.49-1.91.89-2.88,1.29-1.6.66-3.19,1.28-5.07,2.01,7.23,5.68,13.31,12.69,17.91,20.66.25-.83.62-2.07,1.05-3.57,1.99-7.07,5.4-19.41,5.82-35.09.19-6.22-.15-12.44-1.04-18.6Z"/>
        <g>
          <path class="cls-1" d="m200.93,114.9c7.07,3.8,11.55,9.61,13.43,17.41.99,3.74.77,7.47,0,11.2-.45,1.87-1.1,3.68-1.93,5.41-1.14,2.36-4.23,8.56-11.46,12.2-7.95,3.99-15.53,2.19-17.68,1.59-3.95-1.11-7.57-3.19-10.51-6.06-2.12-2.21-3.85-4.76-5.1-7.56-3.9-9.07-2.74-25.09,8.55-32.67,7.17-4.81,16.09-4.64,21.02-3.06,1.26.43,2.49.94,3.69,1.54Z"/>
          <path class="cls-1" d="m103.1,144.57c-1.5,5.52-4.68,10.44-9.11,14.06-2.82,2.35-6.2,3.43-9.64,4.39-2.89.81-5.81.75-8.75.35-1.7-.38-3.46-.62-5.1-1.18-4.05-1.39-7.39-3.44-10.02-6.17-2.98-3.13-5.1-6.98-6.14-11.18-.96-3.51-1.19-7.17-.68-10.77.59-4.14,2.18-8.08,4.64-11.46,3.03-4.11,6.97-6.9,11.68-8.72,3.12-1.11,6.43-1.6,9.74-1.45,4.52.17,8.93,1.5,12.79,3.86,2.18,1.35,4.14,3.05,5.78,5.02,3.28,4.02,4.26,8.07,4.87,10.71.79,2.98,1.01,6.09.65,9.15-.15,1.14-.38,2.27-.7,3.38Z"/>
        </g>
        <path class="cls-2" d="m134.98,184.97c-.07-.05-.13-.11-.18-.17.08.01.13.07.18.17Z"/>
        <path class="cls-2" d="m134.98,184.97c-.07-.05-.13-.11-.18-.17.08.01.13.07.18.17Z"/>
        <path class="cls-2" d="m135.01,184.99s-.01.01-.02.01c0-.01,0-.02,0-.03,0,.02.02.03.03.02Z"/>
      </g>
    </g>
  </g>
</svg>