<?xml version="1.0" encoding="UTF-8" standalone="no"?>
<svg
   id="Layer_2"
   data-name="Layer 2"
   viewBox="0 0 855.35998 256.53001"
   version="1.1"
   width="855.35999"
   height="256.53"
   xmlns="http://www.w3.org/2000/svg"
   xmlns:svg="http://www.w3.org/2000/svg">
  <defs
     id="defs1">
    <style
       id="style1">
      .cls-1 {
        font-family: SpaceGrotesk-Regular, 'Space Grotesk';
        font-variation-settings: 'wght' 400;
      }

      .cls-2 {
        font-size: 136.85px;
      }

      .cls-2, .cls-3 {
        fill: #f4f4f2;
      }

      .cls-4 {
        letter-spacing: -.02em;
      }

      .cls-3 {
        stroke-width: 0px;
      }

      .cls-5 {
        font-family: SpaceGrotesk-Bold, 'Space Grotesk';
        font-variation-settings: 'wght' 700;
        font-weight: 700;
      }

      .cls-6 {
        letter-spacing: -.01em;
      }

      .cls-7 {
        letter-spacing: -.03em;
      }

      .cls-8 {
        letter-spacing: -.02em;
      }

      .cls-9 {
        letter-spacing: -.01em;
      }

      .cls-10 {
        letter-spacing: -.01em;
      }

      .cls-11 {
        letter-spacing: -.02em;
      }

      .cls-12 {
        letter-spacing: 0em;
      }

      .cls-13 {
        letter-spacing: -.01em;
      }

      .cls-14 {
        letter-spacing: -.03em;
      }
    </style>
  </defs>
  <g
     id="Camada_1"
     data-name="Camada 1"
     transform="translate(-6.29)">
    <g
       id="g31">
      <g
         id="g7">
        <g
           id="g4">
          <path
             class="cls-3"
             d="m 352.73,256.53 c -14.88,0 -27.99,-3.17 -39.34,-9.5 -11.36,-6.33 -20.2,-15.27 -26.53,-26.83 -6.33,-11.56 -9.5,-25.17 -9.5,-40.85 v -3.62 c 0,-15.68 3.11,-29.29 9.35,-40.85 6.23,-11.56 14.97,-20.5 26.23,-26.83 11.25,-6.33 24.32,-9.5 39.19,-9.5 14.87,0 27.44,3.27 38.29,9.8 10.85,6.53 19.29,15.58 25.33,27.13 6.03,11.56 9.04,24.98 9.04,40.25 v 12.96 H 315.95 c 0.4,10.25 4.22,18.59 11.46,25.02 7.24,6.44 16.08,9.65 26.53,9.65 10.45,0 18.49,-2.31 23.52,-6.93 5.02,-4.62 8.84,-9.75 11.46,-15.38 l 31.05,16.28 c -2.82,5.23 -6.89,10.91 -12.21,17.04 -5.33,6.13 -12.41,11.36 -21.26,15.68 -8.85,4.32 -20.1,6.48 -33.77,6.48 z m -36.48,-96.18 h 69.95 c -0.8,-8.64 -4.27,-15.57 -10.4,-20.8 -6.13,-5.22 -14.12,-7.84 -23.97,-7.84 -9.85,0 -18.39,2.61 -24.42,7.84 -6.03,5.23 -9.75,12.16 -11.16,20.8 z"
             id="path1" />
          <path
             class="cls-3"
             d="M 458.55,252.31 V 102.77 h 37.39 v 19.6 h 5.43 c 2.41,-5.22 6.93,-10.2 13.57,-14.92 6.63,-4.72 16.68,-7.08 30.15,-7.08 11.65,0 21.86,2.67 30.6,7.99 8.74,5.33 15.53,12.66 20.35,22.01 4.82,9.35 7.24,20.25 7.24,32.71 v 89.24 h -37.99 v -86.23 c 0,-11.25 -2.77,-19.7 -8.29,-25.33 -5.53,-5.62 -13.42,-8.44 -23.67,-8.44 -11.66,0 -20.7,3.87 -27.13,11.61 -6.44,7.74 -9.65,18.54 -9.65,32.41 v 75.98 h -37.99 z"
             id="path2" />
          <path
             class="cls-3"
             d="m 712.41,256.53 c -14.88,0 -27.99,-3.17 -39.34,-9.5 -11.36,-6.33 -20.2,-15.27 -26.53,-26.83 -6.33,-11.56 -9.5,-25.17 -9.5,-40.85 v -3.62 c 0,-15.68 3.11,-29.29 9.35,-40.85 6.23,-11.56 14.97,-20.5 26.23,-26.83 11.25,-6.33 24.32,-9.5 39.19,-9.5 14.87,0 27.44,3.27 38.29,9.8 10.85,6.53 19.29,15.58 25.33,27.13 6.03,11.56 9.04,24.98 9.04,40.25 v 12.96 H 675.63 c 0.4,10.25 4.22,18.59 11.46,25.02 7.24,6.44 16.08,9.65 26.53,9.65 10.45,0 18.49,-2.31 23.52,-6.93 5.02,-4.62 8.84,-9.75 11.46,-15.38 l 31.05,16.28 c -2.82,5.23 -6.89,10.91 -12.21,17.04 -5.33,6.13 -12.41,11.36 -21.26,15.68 -8.85,4.32 -20.1,6.48 -33.77,6.48 z m -36.48,-96.18 h 69.95 c -0.8,-8.64 -4.27,-15.57 -10.4,-20.8 -6.13,-5.22 -14.12,-7.84 -23.97,-7.84 -9.85,0 -18.39,2.61 -24.42,7.84 -6.03,5.23 -9.75,12.16 -11.16,20.8 z"
             id="path3" />
          <path
             class="cls-3"
             d="m 837.23,85.29 c -6.83,0 -12.62,-2.21 -17.34,-6.63 -4.72,-4.42 -7.08,-10.25 -7.08,-17.49 0,-7.24 2.36,-13.06 7.08,-17.49 4.72,-4.42 10.5,-6.63 17.34,-6.63 6.84,0 12.86,2.21 17.49,6.63 4.62,4.42 6.93,10.25 6.93,17.49 0,7.24 -2.31,13.07 -6.93,17.49 -4.63,4.42 -10.45,6.63 -17.49,6.63 z M 818.24,252.32 V 102.77 h 37.99 v 149.54 h -37.99 z"
             id="path4" />
        </g>
        <g
           id="g6">
          <path
             class="cls-3"
             d="m 178.99,26.61 v 50 C 140.78,72.02 111.07,39.42 111.07,0 H 92.58 c 0,39.42 -29.71,72.02 -67.92,76.6 V 26.52 H 6.29 v 163.6 c 0,0 0,0 0,0 v 0 66.41 h 18.37 v -66.42 c 0,-42.54 34.62,-77.16 77.16,-77.16 42.54,0 77.16,34.61 77.16,77.16 v 0 66.41 h 18.37 V 26.61 h -18.37 z m -77.16,67.98 c -31.66,0 -59.77,15.49 -77.16,39.28 V 95.09 c 34.15,-3.3 63.1,-24.64 77.16,-54.36 14.06,29.72 43.01,51.07 77.16,54.36 v 38.78 C 161.6,110.08 133.49,94.59 101.83,94.59 Z"
             id="path5" />
          <path
             class="cls-3"
             d="m 101.83,131.33 c -32.42,0 -58.79,26.37 -58.79,58.79 v 0 66.41 h 18.37 v -66.41 0 c 0,-22.29 18.13,-40.42 40.42,-40.42 22.29,0 40.42,18.13 40.42,40.42 v 0 66.41 h 18.37 v -66.41 0 c 0,-32.42 -26.37,-58.79 -58.79,-58.79 z"
             id="path6" />
        </g>
      </g>
    </g>
  </g>
</svg>
