<?xml version="1.0" encoding="UTF-8"?>
<svg id="Layer_1" data-name="Layer 1" xmlns="http://www.w3.org/2000/svg" viewBox="0 0 193.02 75.04">
  <defs>
    <style>
      .cls-1 {
        fill: #ffffff;
        stroke-width: 0px;
      }
    </style>
  </defs>
  <path class="cls-1" d="m0,75.04V17.01h10.34v5h1.5c.94-1.61,2.42-3.04,4.42-4.29,2-1.25,4.86-1.88,8.59-1.88,3.33,0,6.42.82,9.25,2.46,2.83,1.64,5.11,4.04,6.84,7.21,1.72,3.17,2.58,7,2.58,11.51v1.33c0,4.5-.86,8.34-2.58,11.51-1.72,3.17-4,5.57-6.84,7.21-2.83,1.64-5.92,2.46-9.25,2.46-2.5,0-4.6-.29-6.29-.88-1.7-.58-3.06-1.33-4.09-2.25-1.03-.92-1.85-1.85-2.46-2.79h-1.5v21.43H0Zm21.68-24.68c3.28,0,5.99-1.04,8.13-3.13,2.14-2.08,3.21-5.13,3.21-9.13v-.83c0-4-1.08-7.05-3.25-9.13-2.17-2.08-4.86-3.13-8.09-3.13s-5.92,1.04-8.09,3.13c-2.17,2.08-3.25,5.13-3.25,9.13v.83c0,4,1.08,7.05,3.25,9.13,2.17,2.08,4.86,3.13,8.09,3.13Z"/>
  <path class="cls-1" d="m72.04,59.53c-4.11,0-7.74-.88-10.88-2.63-3.14-1.75-5.59-4.22-7.34-7.42-1.75-3.2-2.63-6.96-2.63-11.3v-1c0-4.34.86-8.1,2.58-11.3,1.72-3.2,4.14-5.67,7.25-7.42,3.11-1.75,6.73-2.63,10.84-2.63s7.59.9,10.59,2.71c3,1.81,5.34,4.31,7,7.5,1.67,3.2,2.5,6.91,2.5,11.13v3.59h-30.1c.11,2.83,1.17,5.14,3.17,6.92,2,1.78,4.45,2.67,7.34,2.67s5.11-.64,6.5-1.92c1.39-1.28,2.45-2.7,3.17-4.25l8.59,4.5c-.78,1.45-1.9,3.02-3.38,4.71-1.47,1.7-3.43,3.14-5.88,4.34-2.45,1.19-5.56,1.79-9.34,1.79Zm-10.09-26.6h19.34c-.22-2.39-1.18-4.31-2.88-5.75-1.7-1.44-3.91-2.17-6.63-2.17s-5.09.72-6.75,2.17c-1.67,1.45-2.7,3.36-3.08,5.75Z"/>
  <path class="cls-1" d="m114.14,59.53c-2.95,0-5.59-.51-7.92-1.54-2.33-1.03-4.18-2.53-5.54-4.5-1.36-1.97-2.04-4.38-2.04-7.21s.68-5.21,2.04-7.13c1.36-1.92,3.25-3.36,5.67-4.34,2.42-.97,5.18-1.46,8.3-1.46h11.34v-2.33c0-1.94-.61-3.54-1.83-4.79-1.22-1.25-3.17-1.88-5.84-1.88s-4.56.6-5.84,1.79c-1.28,1.2-2.11,2.74-2.5,4.63l-9.67-3.25c.67-2.11,1.74-4.04,3.21-5.79,1.47-1.75,3.45-3.17,5.92-4.25,2.47-1.08,5.49-1.63,9.05-1.63,5.45,0,9.75,1.36,12.92,4.09,3.17,2.72,4.75,6.67,4.75,11.84v15.42c0,1.67.78,2.5,2.33,2.5h3.33v8.67h-7c-2.06,0-3.75-.5-5.09-1.5s-2-2.33-2-4v-.08h-1.58c-.22.67-.72,1.54-1.5,2.63-.78,1.08-2,2.04-3.67,2.88-1.67.83-3.95,1.25-6.84,1.25Zm1.83-8.5c2.95,0,5.35-.82,7.21-2.46,1.86-1.64,2.79-3.82,2.79-6.55v-.83h-10.59c-1.95,0-3.47.42-4.59,1.25-1.11.83-1.67,2-1.67,3.5s.58,2.72,1.75,3.67c1.17.95,2.86,1.42,5.09,1.42Z"/>
  <path class="cls-1" d="m149.49,58.36V17.01h10.34v4.67h1.5c.61-1.67,1.63-2.89,3.04-3.67,1.42-.78,3.07-1.17,4.96-1.17h5v9.34h-5.17c-2.67,0-4.86.71-6.59,2.13-1.72,1.42-2.58,3.6-2.58,6.54v23.51h-10.5Z"/>
  <path class="cls-1" d="m182.51,58.36V0h10.5v58.36h-10.5Z"/>
</svg>