<svg width="14" height="14" viewBox="0 0 14 14" fill="none" xmlns="http://www.w3.org/2000/svg">
<path d="M1.52099 13.6303V5.85517C1.09718 5.84501 0.737767 5.69492 0.442739 5.40491C0.14758 5.11489 0 4.75963 0 4.33913V0.432647C0 0.309675 0.0410344 0.206823 0.123104 0.124094C0.205173 0.041365 0.307694 0 0.430667 0C0.553639 0 0.656489 0.0411015 0.739219 0.123303C0.821948 0.205504 0.863312 0.308223 0.863312 0.431459V3.1346H1.65122V0.431854C1.65122 0.30941 1.69219 0.206823 1.77412 0.124094C1.85619 0.041365 1.95871 0 2.08169 0C2.20479 0 2.30764 0.0411015 2.39024 0.123303C2.47297 0.205504 2.51433 0.308223 2.51433 0.431459V3.1346H3.30224V0.431854C3.30224 0.30941 3.34321 0.206823 3.42515 0.124094C3.50721 0.041365 3.6098 0 3.73291 0C3.85588 0 3.95873 0.0411015 4.04146 0.123303C4.12406 0.205504 4.16535 0.308223 4.16535 0.431459V4.33913C4.16535 4.75963 4.01573 5.11489 3.71648 5.40491C3.4171 5.69492 3.05445 5.84501 2.62853 5.85517V13.6303H1.52099ZM6.8305 13.6303V5.80648C6.2981 5.56344 5.90379 5.18087 5.64755 4.65876C5.39132 4.13653 5.2632 3.57893 5.2632 2.98597C5.2632 2.22122 5.44502 1.5324 5.80866 0.919521C6.1723 0.306507 6.69446 0 7.37517 0C8.05587 0 8.57843 0.306837 8.94286 0.920511C9.30716 1.53418 9.48931 2.22313 9.48931 2.98735C9.48931 3.57992 9.36383 4.13719 9.11287 4.65916C8.86192 5.181 8.4703 5.56344 7.93804 5.80648V13.6303H6.8305ZM10.6944 13.6303V0.01524C11.4323 0.0856983 12.0446 0.396362 12.5315 0.94723C13.0185 1.49797 13.262 2.1505 13.262 2.90482V7.37695H11.802V13.6303H10.6944Z" fill="#E35C3B"/>
</svg>
