<?xml version="1.0" encoding="UTF-8"?>
<svg version="1.1" xmlns="http://www.w3.org/2000/svg" width="500" height="500">
<path d="M0 0 C0.62003906 0.3609375 1.24007813 0.721875 1.87890625 1.09375 C1.87890625 1.75375 1.87890625 2.41375 1.87890625 3.09375 C2.86890625 3.42375 3.85890625 3.75375 4.87890625 4.09375 C6.06640625 7.15625 6.06640625 7.15625 6.87890625 10.09375 C7.53890625 10.09375 8.19890625 10.09375 8.87890625 10.09375 C9.13414062 11.05087891 9.13414062 11.05087891 9.39453125 12.02734375 C9.636875 12.85363281 9.87921875 13.67992188 10.12890625 14.53125 C10.3609375 15.35496094 10.59296875 16.17867187 10.83203125 17.02734375 C11.66833319 19.28114533 11.66833319 19.28114533 13.84765625 19.7421875 C14.51796875 19.85820313 15.18828125 19.97421875 15.87890625 20.09375 C18.58213532 22.72188937 19.75549765 24.35329841 20.37890625 28.09375 C19.75549765 31.83420159 18.58213532 33.46561063 15.87890625 36.09375 C15.20472656 36.21363281 14.53054688 36.33351562 13.8359375 36.45703125 C13.19011719 36.66714844 12.54429687 36.87726563 11.87890625 37.09375 C10.84803065 39.07811045 10.84803065 39.07811045 10.31640625 41.46875 C9.39860484 44.96893674 8.48536405 46.61865215 5.87890625 49.09375 C5.54890625 50.08375 5.21890625 51.07375 4.87890625 52.09375 C4.21890625 52.09375 3.55890625 52.09375 2.87890625 52.09375 C2.87890625 52.75375 2.87890625 53.41375 2.87890625 54.09375 C3.64203125 53.7225 4.40515625 53.35125 5.19140625 52.96875 C11.22771166 51.53640634 16.91448774 52.4602949 22.3671875 55.46484375 C24.40073657 56.91325081 26.22042897 58.22618103 27.87890625 60.09375 C27.87890625 61.08375 27.87890625 62.07375 27.87890625 63.09375 C34.92187614 61.25645351 41.56509844 58.59434222 48.19140625 55.59375 C53.63469766 53.37952976 59.24803092 51.7618439 64.87890625 50.09375 C64.68361328 49.09794922 64.68361328 49.09794922 64.484375 48.08203125 C63.37499661 40.97993593 63.37499661 40.97993593 65.69140625 36.90625 C70.34410293 34.26059895 73.78820625 34.84407515 78.87890625 36.09375 C82.03019806 37.16130719 84.91844807 38.58183405 87.87890625 40.09375 C89.01070313 40.64804688 90.1425 41.20234375 91.30859375 41.7734375 C94.85098056 43.51069638 98.36537496 45.29888582 101.87890625 47.09375 C102.98878906 47.63515625 102.98878906 47.63515625 104.12109375 48.1875 C111.60019311 52.04339122 115.95343331 59.37984216 120.25390625 66.34375 C120.92873047 67.40335938 120.92873047 67.40335938 121.6171875 68.484375 C122.04128906 69.165 122.46539062 69.845625 122.90234375 70.546875 C123.28310059 71.15692383 123.66385742 71.76697266 124.05615234 72.39550781 C124.87890625 74.09375 124.87890625 74.09375 124.87890625 77.09375 C125.53890625 77.09375 126.19890625 77.09375 126.87890625 77.09375 C127.39453125 78.021875 127.91015625 78.95 128.44140625 79.90625 C130.88170751 84.20083035 133.58389128 88.31663111 136.29296875 92.4453125 C137.78897343 94.94356661 138.88328997 97.36319842 139.87890625 100.09375 C140.53890625 100.09375 141.19890625 100.09375 141.87890625 100.09375 C142.18183594 100.7228125 142.48476563 101.351875 142.796875 102 C144.88539026 106.26699733 146.97181987 110.31808611 149.69140625 114.21875 C152.36892598 118.41296603 152.60602429 121.16550547 151.87890625 126.09375 C150.19140625 128.78125 150.19140625 128.78125 147.87890625 131.09375 C147.07453125 131.939375 146.27015625 132.785 145.44140625 133.65625 C142.87890625 136.09375 142.87890625 136.09375 140.44140625 137.96875 C137.62706807 140.30259142 135.48122893 142.85178273 133.2109375 145.703125 C132.77136719 146.16203125 132.33179688 146.6209375 131.87890625 147.09375 C131.21890625 147.09375 130.55890625 147.09375 129.87890625 147.09375 C129.87890625 147.75375 129.87890625 148.41375 129.87890625 149.09375 C129.21890625 149.09375 128.55890625 149.09375 127.87890625 149.09375 C127.54890625 149.75375 127.21890625 150.41375 126.87890625 151.09375 C117.45849451 149.84954468 117.45849451 149.84954468 113.453125 145.67578125 C110.09755027 142.30355354 106.45201213 139.23155364 102.87890625 136.09375 C102.25113281 135.53816406 101.62335938 134.98257813 100.9765625 134.41015625 C92.1947035 126.66800994 83.36019314 118.97233069 73.87890625 112.09375 C73.37101562 112.54105469 72.863125 112.98835938 72.33984375 113.44921875 C71.30730469 114.35607422 71.30730469 114.35607422 70.25390625 115.28125 C69.52171875 115.92449219 68.78953125 116.56773437 68.03515625 117.23046875 C66.30203531 118.7281113 64.54594404 120.16869867 62.75390625 121.59375 C59.95013804 124.03180931 57.67308193 126.55906379 55.3125 129.41015625 C53.87890625 131.09375 53.87890625 131.09375 51.37890625 133.53125 C50.55390625 134.376875 49.72890625 135.2225 48.87890625 136.09375 C48.11489502 136.78803101 48.11489502 136.78803101 47.33544922 137.49633789 C42.01769408 143.16779318 42.20350852 149.18720229 42.3515625 156.52734375 C42.40167872 158.04950121 42.4524682 159.57163664 42.50390625 161.09375 C42.53404604 162.64708368 42.56141478 164.20047374 42.5859375 165.75390625 C42.65161464 169.53526105 42.75490301 173.31387673 42.87890625 177.09375 C43.53262207 177.28130859 44.18633789 177.46886719 44.85986328 177.66210938 C49.63512885 179.05837557 54.21259725 180.54028854 58.75390625 182.59375 C62.81174075 184.34174025 66.69509823 185.62150614 71.00390625 186.59375 C79.45064767 188.56687332 85.49876818 191.23407396 90.87890625 198.09375 C92.50956179 199.4910716 94.17932693 200.84362847 95.87890625 202.15625 C100.34571307 205.73692915 104.50663855 209.49518453 108.56640625 213.53125 C109.09556641 214.05146729 109.62472656 214.57168457 110.16992188 215.10766602 C113.87890625 218.84558835 113.87890625 218.84558835 113.87890625 221.09375 C114.74515625 221.465 114.74515625 221.465 115.62890625 221.84375 C118.20830604 223.27674988 119.94012217 224.87799676 121.87890625 227.09375 C121.87890625 227.75375 121.87890625 228.41375 121.87890625 229.09375 C122.53890625 229.09375 123.19890625 229.09375 123.87890625 229.09375 C125.23277561 230.74377828 126.56568767 232.4111887 127.87890625 234.09375 C128.53890625 234.42375 129.19890625 234.75375 129.87890625 235.09375 C129.87890625 235.75375 129.87890625 236.41375 129.87890625 237.09375 C130.53890625 237.09375 131.19890625 237.09375 131.87890625 237.09375 C133.23277561 238.74377828 134.56568767 240.4111887 135.87890625 242.09375 C136.53890625 242.42375 137.19890625 242.75375 137.87890625 243.09375 C137.87890625 243.75375 137.87890625 244.41375 137.87890625 245.09375 C138.53890625 245.09375 139.19890625 245.09375 139.87890625 245.09375 C141.31640625 246.58984375 141.31640625 246.58984375 142.87890625 248.53125 C145.02415669 251.24563238 145.02415669 251.24563238 147.87890625 253.09375 C147.87890625 253.75375 147.87890625 254.41375 147.87890625 255.09375 C148.53890625 255.09375 149.19890625 255.09375 149.87890625 255.09375 C152.2648807 258.67271168 153.15474054 261.83085645 152.87890625 266.09375 C149.65242548 271.55394822 144.3152129 272.53414506 138.4453125 274.18359375 C132.94380438 275.58759308 127.42276214 276.86957929 121.87890625 278.09375 C121.20085937 278.28324219 120.5228125 278.47273438 119.82421875 278.66796875 C117.45070677 279.18747238 115.2446267 279.22607495 112.81640625 279.21875 C111.95917969 279.22132813 111.10195313 279.22390625 110.21875 279.2265625 C106.01092513 278.98772102 104.28980225 277.58971101 101.484375 274.62890625 C98.76532643 272.0289401 95.69851676 269.8713101 92.671875 267.64453125 C92.08019531 267.13277344 91.48851562 266.62101562 90.87890625 266.09375 C90.87890625 265.43375 90.87890625 264.77375 90.87890625 264.09375 C90.01265625 263.6915625 90.01265625 263.6915625 89.12890625 263.28125 C86.82340582 262.06445811 84.85834433 260.79041121 82.87890625 259.09375 C82.87890625 258.43375 82.87890625 257.77375 82.87890625 257.09375 C82.21890625 257.09375 81.55890625 257.09375 80.87890625 257.09375 C80.87890625 256.43375 80.87890625 255.77375 80.87890625 255.09375 C79.79609375 254.7534375 79.79609375 254.7534375 78.69140625 254.40625 C75.28726166 252.81764919 73.50923962 250.78386368 70.87890625 248.09375 C64.91601721 242.59319231 59.99806813 239.92431144 51.87890625 239.09375 C53.3007488 243.77577698 55.25737367 248.01510497 57.50390625 252.34375 C62.34316795 261.83571829 66.60173884 271.56481123 70.85253906 281.33056641 C72.48955033 285.06002829 74.17935251 288.74102304 76.01953125 292.375 C76.36757813 293.07238281 76.715625 293.76976562 77.07421875 294.48828125 C77.78050574 295.89823936 78.49942345 297.30193712 79.23046875 298.69921875 C81.74331135 303.80992494 82.92965213 308.39908891 81.87890625 314.09375 C80.4296875 316.60546875 80.4296875 316.60546875 77.87890625 318.09375 C74.94097681 318.71808825 72.06332962 318.83564823 69.06640625 318.90625 C67.89368164 318.96329102 67.89368164 318.96329102 66.69726562 319.02148438 C54.96170026 319.48227934 54.96170026 319.48227934 50.91015625 316.78125 C50.40484375 316.224375 49.89953125 315.6675 49.37890625 315.09375 C48.52619141 314.15982422 48.52619141 314.15982422 47.65625 313.20703125 C38.87890625 302.77067308 38.87890625 302.77067308 38.87890625 300.09375 C38.21890625 300.09375 37.55890625 300.09375 36.87890625 300.09375 C36.87890625 299.43375 36.87890625 298.77375 36.87890625 298.09375 C36.21890625 298.09375 35.55890625 298.09375 34.87890625 298.09375 C33.86024396 296.43842377 32.86079812 294.77114862 31.87890625 293.09375 C31.21890625 292.76375 30.55890625 292.43375 29.87890625 292.09375 C29.61078125 291.51625 29.34265625 290.93875 29.06640625 290.34375 C27.48465496 287.34674755 25.30463671 285.46557534 22.87890625 283.09375 C21.59432428 281.71055904 20.32399067 280.31403176 19.06640625 278.90625 C18.46183594 278.23207031 17.85726563 277.55789063 17.234375 276.86328125 C15.87890625 275.09375 15.87890625 275.09375 15.87890625 273.09375 C15.21890625 273.09375 14.55890625 273.09375 13.87890625 273.09375 C13.87890625 272.43375 13.87890625 271.77375 13.87890625 271.09375 C13.21890625 271.09375 12.55890625 271.09375 11.87890625 271.09375 C9.57297387 267.30543253 7.62766888 263.62957808 6.03515625 259.48828125 C3.56186127 253.20458785 0.73112198 247.09925589 -2.1171875 240.97851562 C-2.50519531 240.13095703 -2.89320313 239.28339844 -3.29296875 238.41015625 C-3.64456055 237.65162354 -3.99615234 236.89309082 -4.35839844 236.11157227 C-5.12109375 234.09375 -5.12109375 234.09375 -5.12109375 231.09375 C-5.78109375 231.09375 -6.44109375 231.09375 -7.12109375 231.09375 C-7.36859375 230.041875 -7.61609375 228.99 -7.87109375 227.90625 C-8.94642088 224.21305753 -10.44173891 221.91793483 -13.12109375 219.09375 C-13.51167969 218.51753906 -13.90226562 217.94132813 -14.3046875 217.34765625 C-16.1678526 215.08055292 -17.34658567 214.13946125 -20.12109375 213.09375 C-25.47906898 213.09375 -30.76005834 214.43206282 -35.95947266 215.61230469 C-38.80984752 216.24715213 -41.67930306 216.73438334 -44.55859375 217.21875 C-47.21776634 217.69315638 -49.54775538 218.23597054 -52.12109375 219.09375 C-71.13534336 222.14190173 -88.60656816 221.54694117 -106.12109375 213.09375 C-107.11109375 212.76375 -108.10109375 212.43375 -109.12109375 212.09375 C-109.12109375 211.43375 -109.12109375 210.77375 -109.12109375 210.09375 C-109.82234375 209.825625 -110.52359375 209.5575 -111.24609375 209.28125 C-114.28607615 208.0256051 -117.19387115 206.59139877 -120.12109375 205.09375 C-120.12109375 204.43375 -120.12109375 203.77375 -120.12109375 203.09375 C-121.08015625 202.7534375 -121.08015625 202.7534375 -122.05859375 202.40625 C-126.25429636 200.60809174 -130.16009931 198.35470979 -134.12109375 196.09375 C-134.27578125 197.3621875 -134.27578125 197.3621875 -134.43359375 198.65625 C-135.2132047 202.55430473 -136.37307012 205.52778179 -138.12109375 209.09375 C-138.78109375 209.42375 -139.44109375 209.75375 -140.12109375 210.09375 C-140.40984375 210.980625 -140.69859375 211.8675 -140.99609375 212.78125 C-143.6013693 220.45233912 -149.05785336 225.33668822 -155.05859375 230.46875 C-158.38541916 233.33019719 -161.1837309 236.3633028 -163.89453125 239.80859375 C-164.29929688 240.23269531 -164.7040625 240.65679687 -165.12109375 241.09375 C-165.78109375 241.09375 -166.44109375 241.09375 -167.12109375 241.09375 C-167.34796875 241.67125 -167.57484375 242.24875 -167.80859375 242.84375 C-169.12109375 245.09375 -169.12109375 245.09375 -171.30859375 246.78125 C-174.69382786 249.56466471 -177.00245736 252.7355359 -179.5703125 256.265625 C-180.08207031 256.86890625 -180.59382812 257.4721875 -181.12109375 258.09375 C-181.78109375 258.09375 -182.44109375 258.09375 -183.12109375 258.09375 C-182.9509375 258.93550781 -182.78078125 259.77726562 -182.60546875 260.64453125 C-180.84573063 269.65850894 -179.33319758 278.70448116 -177.93359375 287.78125 C-177.66530762 289.45344604 -177.66530762 289.45344604 -177.39160156 291.15942383 C-174.98002028 307.14613932 -174.98002028 307.14613932 -176.12109375 314.09375 C-178.43804067 317.04152433 -179.48495672 317.96003967 -183.1875 318.73828125 C-203.009466 319.69062152 -203.009466 319.69062152 -207.31640625 316.43359375 C-209.49398749 313.61027954 -210.11638523 311.3154092 -210.87109375 307.84375 C-211.1134375 306.76609375 -211.35578125 305.6884375 -211.60546875 304.578125 C-211.775625 303.75828125 -211.94578125 302.9384375 -212.12109375 302.09375 C-212.45109375 302.09375 -212.78109375 302.09375 -213.12109375 302.09375 C-213.23066406 301.4646875 -213.34023437 300.835625 -213.453125 300.1875 C-214.361533 295.28357391 -215.49538571 290.76240219 -217.33984375 286.1328125 C-218.84716144 282.19871333 -219.94987466 278.13777064 -221.12109375 274.09375 C-221.476875 272.90265625 -221.83265625 271.7115625 -222.19921875 270.484375 C-222.5653125 269.24171875 -222.93140625 267.9990625 -223.30859375 266.71875 C-223.82486328 264.97464844 -223.82486328 264.97464844 -224.3515625 263.1953125 C-225.12109375 260.09375 -225.12109375 260.09375 -225.12109375 256.09375 C-225.78109375 255.76375 -226.44109375 255.43375 -227.12109375 255.09375 C-227.12109375 254.10375 -227.12109375 253.11375 -227.12109375 252.09375 C-227.7965625 252.43148438 -228.47203125 252.76921875 -229.16796875 253.1171875 C-233.15234375 255.109375 -237.13671875 257.1015625 -241.12109375 259.09375 C-241.12109375 259.75375 -241.12109375 260.41375 -241.12109375 261.09375 C-242.9140625 262.64453125 -242.9140625 262.64453125 -245.30859375 264.40625 C-248.90244995 267.05843243 -251.97160612 269.9297486 -255.12109375 273.09375 C-256.93425159 274.63858132 -258.76792022 276.1596562 -260.62109375 277.65625 C-261.53890625 278.40003906 -262.45671875 279.14382813 -263.40234375 279.91015625 C-264.29953125 280.63074219 -265.19671875 281.35132813 -266.12109375 282.09375 C-267.466875 283.22103516 -267.466875 283.22103516 -268.83984375 284.37109375 C-271.12109375 286.09375 -271.12109375 286.09375 -273.12109375 286.09375 C-273.45109375 287.08375 -273.78109375 288.07375 -274.12109375 289.09375 C-275.43756494 289.79312532 -276.77131526 290.46104133 -278.12109375 291.09375 C-278.45109375 291.75375 -278.78109375 292.41375 -279.12109375 293.09375 C-282.68396289 295.56035171 -285.90020331 295.74871576 -290.12109375 295.09375 C-291.83586473 293.54822915 -293.12400477 291.88147653 -294.5078125 290.03515625 C-296.76715484 287.31628666 -299.46921418 285.51274654 -302.38671875 283.55078125 C-304.12109375 282.09375 -304.12109375 282.09375 -305.16796875 279.98046875 C-306.02452064 277.73473057 -306.02452064 277.73473057 -309.12109375 277.09375 C-310.28407348 274.76779054 -310.28710066 273.30651769 -310.30859375 270.71875 C-310.32277344 269.94789063 -310.33695312 269.17703125 -310.3515625 268.3828125 C-310.09910982 265.87540112 -309.37302842 264.26113098 -308.12109375 262.09375 C-307.46109375 262.09375 -306.80109375 262.09375 -306.12109375 262.09375 C-306.12109375 261.43375 -306.12109375 260.77375 -306.12109375 260.09375 C-305.03651058 258.97418028 -303.94324352 257.86235265 -302.8203125 256.78125 C-300.63937607 254.61535451 -298.56752683 252.36455429 -296.49609375 250.09375 C-295.74070312 249.26875 -294.9853125 248.44375 -294.20703125 247.59375 C-292.20916612 245.1993049 -290.67474651 242.7895225 -289.12109375 240.09375 C-288.14355731 239.07178008 -287.14050565 238.07395375 -286.12109375 237.09375 C-283.73185661 234.27567542 -281.39410577 231.44354665 -279.12109375 228.53125 C-277.12109375 226.09375 -277.12109375 226.09375 -274.74609375 223.78125 C-272.6307163 221.61550642 -270.99180286 219.59838562 -269.24609375 217.15625 C-263.06839462 208.86226099 -255.72342825 204.88096445 -246.12109375 201.09375 C-245.46109375 201.09375 -244.80109375 201.09375 -244.12109375 201.09375 C-244.12109375 200.43375 -244.12109375 199.77375 -244.12109375 199.09375 C-241.18461046 197.77896674 -238.24673636 196.4673205 -235.30859375 195.15625 C-234.47521484 194.78306641 -233.64183594 194.40988281 -232.78320312 194.02539062 C-231.98076172 193.66767578 -231.17832031 193.30996094 -230.3515625 192.94140625 C-229.24397583 192.4465271 -229.24397583 192.4465271 -228.11401367 191.94165039 C-226.12109375 191.09375 -226.12109375 191.09375 -223.12109375 190.09375 C-223.33765625 188.69962891 -223.33765625 188.69962891 -223.55859375 187.27734375 C-223.74421875 186.04113281 -223.92984375 184.80492187 -224.12109375 183.53125 C-224.30671875 182.31308594 -224.49234375 181.09492188 -224.68359375 179.83984375 C-225.10664452 176.21747152 -225.196108 172.73662954 -225.12109375 169.09375 C-225.78109375 169.09375 -226.44109375 169.09375 -227.12109375 169.09375 C-227.77201965 170.34110567 -228.41661044 171.59176832 -229.05859375 172.84375 C-229.41824219 173.53984375 -229.77789062 174.2359375 -230.1484375 174.953125 C-231.07667557 176.99599433 -231.65275953 178.90490376 -232.12109375 181.09375 C-232.78109375 181.09375 -233.44109375 181.09375 -234.12109375 181.09375 C-234.12109375 182.08375 -234.12109375 183.07375 -234.12109375 184.09375 C-234.78109375 184.09375 -235.44109375 184.09375 -236.12109375 184.09375 C-236.12109375 185.08375 -236.12109375 186.07375 -236.12109375 187.09375 C-237.66015625 188.7421875 -237.66015625 188.7421875 -239.74609375 190.46875 C-240.85404297 191.38720703 -240.85404297 191.38720703 -241.984375 192.32421875 C-242.68949219 192.90816406 -243.39460938 193.49210938 -244.12109375 194.09375 C-245.04921875 194.980625 -245.97734375 195.8675 -246.93359375 196.78125 C-255.59433729 203.06453453 -266.63764652 205.09375 -277.12109375 205.09375 C-278.66843219 205.37683323 -280.21000984 205.69237158 -281.74609375 206.03125 C-292.24484149 208.26738811 -306.82638528 210.52531949 -317.12109375 207.09375 C-318.85821769 203.61950213 -318.71885104 199.88392534 -318.12109375 196.09375 C-315.80859375 193.21875 -315.80859375 193.21875 -313.12109375 191.09375 C-312.56421875 190.495625 -312.00734375 189.8975 -311.43359375 189.28125 C-310.12109375 188.09375 -310.12109375 188.09375 -308.12109375 188.09375 C-308.12109375 187.43375 -308.12109375 186.77375 -308.12109375 186.09375 C-306.51171875 184.7265625 -306.51171875 184.7265625 -304.37109375 183.21875 C-301.31378111 181.05598439 -298.75699717 178.74969832 -296.12109375 176.09375 C-294.42997913 174.65657272 -292.72022317 173.24114936 -290.99609375 171.84375 C-290.031875 171.05613281 -289.06765625 170.26851562 -288.07421875 169.45703125 C-286.18911517 167.94844968 -284.28438776 166.46385693 -282.35546875 165.01171875 C-276.09657837 160.26133338 -271.68185275 155.8418818 -269.1953125 148.27734375 C-263.59314726 131.67456313 -253.25136704 118.04389606 -237.4375 110.1640625 C-227.98161362 105.86671748 -218.77689507 104.97312247 -208.45703125 105.16015625 C-205.60104395 105.10330404 -203.84844501 104.9170345 -201.24609375 103.90625 C-176.84139197 95.10042977 -150.9712007 89.60600392 -125.87109375 99.65625 C-123.12109375 101.09375 -123.12109375 101.09375 -122.12109375 103.09375 C-120.02767857 103.5227758 -120.02767857 103.5227758 -117.62109375 103.65625 C-113.21714864 103.99769511 -113.21714864 103.99769511 -112.12109375 105.09375 C-110.70988473 105.31946184 -109.28933332 105.48763349 -107.8671875 105.62890625 C-107.01318359 105.71591797 -106.15917969 105.80292969 -105.27929688 105.89257812 C-104.38146484 105.97958984 -103.48363281 106.06660156 -102.55859375 106.15625 C-101.65689453 106.24712891 -100.75519531 106.33800781 -99.82617188 106.43164062 C-97.59150941 106.65628923 -95.35651536 106.87680769 -93.12109375 107.09375 C-93.12109375 106.43375 -93.12109375 105.77375 -93.12109375 105.09375 C-93.99507812 104.81015625 -94.8690625 104.5265625 -95.76953125 104.234375 C-121.63641605 95.43119276 -121.63641605 95.43119276 -128.12109375 87.09375 C-128.12109375 86.43375 -128.12109375 85.77375 -128.12109375 85.09375 C-128.78109375 85.09375 -129.44109375 85.09375 -130.12109375 85.09375 C-130.77348533 83.70096983 -131.41769927 82.30435788 -132.05859375 80.90625 C-132.41824219 80.12894531 -132.77789062 79.35164063 -133.1484375 78.55078125 C-135.868948 71.67848767 -136.43298693 63.98102019 -134.0625 56.95703125 C-130.85747547 50.0345257 -127.08259652 45.71391465 -121.12109375 41.09375 C-120.27546875 40.206875 -119.42984375 39.32 -118.55859375 38.40625 C-114.97924681 35.01045932 -111.21907833 32.09375 -106.12109375 32.09375 C-106.12109375 31.43375 -106.12109375 30.77375 -106.12109375 30.09375 C-98.78244419 26.66904687 -91.27423339 24.02778609 -83.12109375 24.09375 C-81.78598639 23.7675948 -80.45276999 23.43364302 -79.12109375 23.09375 C-76.39231198 22.73403417 -73.66834244 22.39939314 -70.93359375 22.09375 C-69.39973405 21.92062192 -67.86587983 21.74744533 -66.33203125 21.57421875 C-65.60081055 21.49220215 -64.86958984 21.41018555 -64.11621094 21.32568359 C-62.50356945 21.13821303 -60.89377072 20.92638777 -59.28515625 20.70703125 C-54.29137869 20.03243323 -50.05376221 20.28658607 -45.12109375 21.09375 C-44.87875 20.21332031 -44.63640625 19.33289063 -44.38671875 18.42578125 C-43.88398437 16.68361328 -43.88398437 16.68361328 -43.37109375 14.90625 C-42.88382812 13.18341797 -42.88382812 13.18341797 -42.38671875 11.42578125 C-40.57831807 6.66477574 -37.89133324 3.33516335 -33.74609375 0.40625 C-33.20210938 0.01050781 -32.658125 -0.38523437 -32.09765625 -0.79296875 C-21.99725831 -6.48192806 -9.93193437 -5.2045071 0 0 Z M-24.12109375 16.09375 C-24.45109375 17.08375 -24.78109375 18.07375 -25.12109375 19.09375 C-21.6588676 20.16098961 -18.48070109 20.19548486 -14.87109375 20.15625 C-13.25460937 20.14271484 -13.25460937 20.14271484 -11.60546875 20.12890625 C-10.37570312 20.11150391 -10.37570312 20.11150391 -9.12109375 20.09375 C-8.89748695 17.1682856 -8.89748695 17.1682856 -10.12109375 15.09375 C-14.83834717 13.52133219 -19.92974298 13.03083982 -24.12109375 16.09375 Z M-25.12109375 38.09375 C-22.24383303 40.883821 -20.65294345 42.02726879 -16.62109375 42.53125 C-12.99000427 42.07736382 -11.05181818 41.22518595 -8.12109375 39.09375 C-8.45109375 38.10375 -8.78109375 37.11375 -9.12109375 36.09375 C-11.03744592 36.03951362 -12.954243 36.00085037 -14.87109375 35.96875 C-15.9384375 35.94554687 -17.00578125 35.92234375 -18.10546875 35.8984375 C-21.04579481 36.08887313 -22.64471253 36.56704896 -25.12109375 38.09375 Z M-62.99609375 39.03125 C-67.08636005 39.79683649 -71.09567973 40.3010926 -75.24609375 40.59375 C-81.93103019 41.08860893 -88.15684797 41.91193138 -94.12109375 45.09375 C-94.00599714 46.51125563 -93.87855717 47.92776169 -93.74609375 49.34375 C-93.67648438 50.13265625 -93.606875 50.9215625 -93.53515625 51.734375 C-93.09568367 54.23853952 -92.5068149 55.96332156 -91.12109375 58.09375 C-87.56064198 59.28056726 -84.68301038 59.19064832 -80.93359375 59.15625 C-79.66128906 59.14722656 -78.38898438 59.13820313 -77.078125 59.12890625 C-76.10230469 59.11730469 -75.12648438 59.10570312 -74.12109375 59.09375 C-73.52296875 58.000625 -72.92484375 56.9075 -72.30859375 55.78125 C-70.81879384 53.15156761 -69.31835976 51.18115271 -67.12109375 49.09375 C-67.12109375 48.43375 -67.12109375 47.77375 -67.12109375 47.09375 C-60.49609375 45.96875 -60.49609375 45.96875 -57.12109375 47.09375 C-57.12109375 47.75375 -57.12109375 48.41375 -57.12109375 49.09375 C-55.42835091 50.65807787 -53.66539523 52.14703572 -51.87109375 53.59375 C-50.40929687 54.78484375 -50.40929687 54.78484375 -48.91796875 56 C-46.30739502 58.09749942 -46.30739502 58.09749942 -43.82421875 59.1875 C-42.12109375 60.09375 -42.12109375 60.09375 -41.12109375 63.09375 C-39.13509038 64.4478432 -37.13291832 65.77832624 -35.12109375 67.09375 C-33.45442708 68.76041667 -31.78776042 70.42708333 -30.12109375 72.09375 C-29.46109375 72.09375 -28.80109375 72.09375 -28.12109375 72.09375 C-28.12109375 72.75375 -28.12109375 73.41375 -28.12109375 74.09375 C-27.13109375 74.09375 -26.14109375 74.09375 -25.12109375 74.09375 C-24.79109375 75.08375 -24.46109375 76.07375 -24.12109375 77.09375 C-21.25748319 79.84777147 -19.59726064 81.0533694 -15.58642578 81.16308594 C-12.59003805 80.88351249 -9.65270684 80.4588893 -6.68359375 79.96875 C-5.67232422 79.824375 -4.66105469 79.68 -3.61914062 79.53125 C1.65961918 78.74615069 6.86167356 77.94398117 11.87890625 76.09375 C12.53890625 75.10375 13.19890625 74.11375 13.87890625 73.09375 C11.14216106 70.82703698 11.14216106 70.82703698 8.4609375 71.265625 C7.54699219 71.45640625 6.63304687 71.6471875 5.69140625 71.84375 C4.71042969 72.04226562 3.72945313 72.24078125 2.71875 72.4453125 C0.37484977 72.98050843 -1.93047801 73.57578225 -4.24609375 74.21875 C-6.16421875 74.651875 -6.16421875 74.651875 -8.12109375 75.09375 C-9.18070313 75.34705078 -9.18070313 75.34705078 -10.26171875 75.60546875 C-12.92146406 75.96351139 -14.55319086 75.92416636 -17.12109375 75.09375 C-20.98992139 71.85067365 -24.01217807 68.05421632 -27.12109375 64.09375 C-27.82363281 63.24554688 -28.52617187 62.39734375 -29.25 61.5234375 C-33.5557176 56.28242704 -37.50253321 50.82404141 -41.359375 45.24609375 C-43.01514059 42.83249778 -43.01514059 42.83249778 -46.12109375 42.09375 C-46.61609375 41.10375 -46.61609375 41.10375 -47.12109375 40.09375 C-49.17074979 39.40446786 -49.17074979 39.40446786 -51.55859375 38.96875 C-52.36167969 38.80117187 -53.16476562 38.63359375 -53.9921875 38.4609375 C-57.24548475 37.89981834 -59.77662778 38.3920227 -62.99609375 39.03125 Z M-113.12109375 58.09375 C-116.05038765 61.36103935 -117.02787273 64.08696296 -117.43359375 68.46875 C-117.06101992 72.79060649 -116.06110461 73.99291803 -113.12109375 77.09375 C-110.87022074 78.40321245 -110.87022074 78.40321245 -108.24609375 79.28125 C-102.03364359 81.68656363 -95.98907253 84.37934721 -89.93359375 87.15625 C-87.19700289 88.40835817 -84.46012585 89.6597641 -81.72119141 90.90673828 C-79.99384692 91.69531564 -78.26951556 92.49052823 -76.54833984 93.29248047 C-75.35265381 93.84186279 -75.35265381 93.84186279 -74.1328125 94.40234375 C-73.42987061 94.72904053 -72.72692871 95.0557373 -72.00268555 95.39233398 C-69.98726725 96.26839871 -69.98726725 96.26839871 -67.12109375 96.09375 C-66.79109375 96.75375 -66.46109375 97.41375 -66.12109375 98.09375 C-63.09174884 98.75147428 -63.09174884 98.75147428 -60.12109375 99.09375 C-60.12109375 99.75375 -60.12109375 100.41375 -60.12109375 101.09375 C-59.13109375 101.09375 -58.14109375 101.09375 -57.12109375 101.09375 C-57.61609375 98.12375 -57.61609375 98.12375 -58.12109375 95.09375 C-58.78109375 95.09375 -59.44109375 95.09375 -60.12109375 95.09375 C-60.12109375 94.43375 -60.12109375 93.77375 -60.12109375 93.09375 C-61.23226562 92.64644531 -62.3434375 92.19914062 -63.48828125 91.73828125 C-77.01388313 86.25402358 -77.01388313 86.25402358 -82.18359375 83.53125 C-89.76911998 79.58100191 -98.02076081 76.79386098 -106.12109375 74.09375 C-107.00191997 71.38056956 -107.69985604 68.80491483 -108.30859375 66.03125 C-108.48583984 65.27263672 -108.66308594 64.51402344 -108.84570312 63.73242188 C-109.28246342 61.85553303 -109.70328531 59.9749484 -110.12109375 58.09375 C-111.11109375 58.09375 -112.10109375 58.09375 -113.12109375 58.09375 Z M87.87890625 62.09375 C86.56352298 66.25146494 87.53457557 68.9816797 88.87890625 73.09375 C85.53370367 75.02617285 82.43123143 75.6401353 78.62890625 76.21875 C77.55125 76.38632813 76.47359375 76.55390625 75.36328125 76.7265625 C74.5434375 76.84773438 73.72359375 76.96890625 72.87890625 77.09375 C71.88890625 74.12375 70.89890625 71.15375 69.87890625 68.09375 C61.56843202 70.4097838 53.54362328 73.36691874 45.47265625 76.39453125 C41.82252554 77.76034325 38.14330146 78.99971193 34.44140625 80.21875 C30.37720408 81.68287252 28.0383818 83.18612757 25.87890625 87.09375 C25.87890625 87.75375 25.87890625 88.41375 25.87890625 89.09375 C25.17765625 89.361875 24.47640625 89.63 23.75390625 89.90625 C20.848218 91.03097227 20.848218 91.03097227 18.19140625 92.65625 C14.58108769 94.22299202 11.79969739 94.49573252 7.921875 94.7890625 C-1.63271126 95.74574765 -11.13036739 97.72222761 -20.12109375 101.09375 C-20.12109375 101.75375 -20.12109375 102.41375 -20.12109375 103.09375 C-21.60609375 103.2484375 -21.60609375 103.2484375 -23.12109375 103.40625 C-27.40406538 104.00183706 -31.12105746 105.47970027 -35.12109375 107.09375 C-36.02591423 112.47570986 -36.25413817 117.6384432 -36.21875 123.08984375 C-36.21733505 123.92338882 -36.2159201 124.7569339 -36.21446228 125.61573792 C-36.20890543 128.25427986 -36.19636115 130.89273409 -36.18359375 133.53125 C-36.17857317 135.33007689 -36.17401124 137.12890513 -36.16992188 138.92773438 C-36.15895018 143.31643958 -36.14171571 147.70507996 -36.12109375 152.09375 C-33.15109375 152.09375 -30.18109375 152.09375 -27.12109375 152.09375 C-26.9509375 152.93035156 -26.78078125 153.76695312 -26.60546875 154.62890625 C-23.12206703 171.36035176 -19.79182115 186.86692561 -8.12109375 200.09375 C-7.46109375 200.09375 -6.80109375 200.09375 -6.12109375 200.09375 C-6.12109375 200.75375 -6.12109375 201.41375 -6.12109375 202.09375 C-4.80109375 202.42375 -3.48109375 202.75375 -2.12109375 203.09375 C-2.12109375 203.75375 -2.12109375 204.41375 -2.12109375 205.09375 C-0.24872004 206.05720444 1.62693615 207.01428102 3.50390625 207.96875 C4.54804688 208.50242187 5.5921875 209.03609375 6.66796875 209.5859375 C15.24871549 213.61533925 24.3481618 215.03316236 33.6328125 216.5234375 C37.11635407 217.13546767 40.5524586 217.88426497 44.00390625 218.65625 C48.91843539 219.73993889 53.6914498 220.43678643 58.69921875 220.85546875 C64.11101556 221.44708095 68.34049549 223.19420979 72.87890625 226.09375 C73.86890625 226.42375 74.85890625 226.75375 75.87890625 227.09375 C75.87890625 227.75375 75.87890625 228.41375 75.87890625 229.09375 C77.53374233 230.59252503 79.25481137 232.01863473 81.00390625 233.40625 C82.00550781 234.20546875 83.00710938 235.0046875 84.0390625 235.828125 C85.44478516 236.94960938 85.44478516 236.94960938 86.87890625 238.09375 C88.07017887 239.1101783 89.25870251 240.12986371 90.44140625 241.15625 C92.62089239 243.30116471 92.62089239 243.30116471 94.87890625 243.09375 C94.87890625 243.75375 94.87890625 244.41375 94.87890625 245.09375 C96.88730376 246.77734732 98.89861207 248.35245136 101.00390625 249.90625 C102.15327831 250.76567865 103.30171989 251.62635313 104.44921875 252.48828125 C105.0215625 252.91302734 105.59390625 253.33777344 106.18359375 253.77539062 C107.87063828 255.08732042 109.42928844 256.49069458 111.01171875 257.92578125 C113.61701848 260.27242531 113.61701848 260.27242531 116.36328125 260.3984375 C117.1109375 260.25664062 117.85859375 260.11484375 118.62890625 259.96875 C119.386875 259.84242188 120.14484375 259.71609375 120.92578125 259.5859375 C122.94002917 259.1528108 122.94002917 259.1528108 124.87890625 258.09375 C124.21890625 256.77375 123.55890625 255.45375 122.87890625 254.09375 C122.21890625 254.09375 121.55890625 254.09375 120.87890625 254.09375 C120.54890625 253.10375 120.21890625 252.11375 119.87890625 251.09375 C117.50385407 248.38526077 117.50385407 248.38526077 114.87890625 246.09375 C114.21890625 246.09375 113.55890625 246.09375 112.87890625 246.09375 C112.54890625 245.10375 112.21890625 244.11375 111.87890625 243.09375 C110.09119756 241.20624097 110.09119756 241.20624097 107.94140625 239.40625 C107.23113281 238.78363281 106.52085937 238.16101563 105.7890625 237.51953125 C104.00904809 235.89436235 104.00904809 235.89436235 101.87890625 236.09375 C101.87890625 235.43375 101.87890625 234.77375 101.87890625 234.09375 C101.21890625 234.09375 100.55890625 234.09375 99.87890625 234.09375 C99.63140625 233.475 99.38390625 232.85625 99.12890625 232.21875 C97.67261986 229.74306313 96.50078119 229.14249998 93.87890625 228.09375 C93.87890625 227.43375 93.87890625 226.77375 93.87890625 226.09375 C93.21890625 226.09375 92.55890625 226.09375 91.87890625 226.09375 C91.63914062 225.536875 91.399375 224.98 91.15234375 224.40625 C89.59819359 221.58398959 87.68148885 219.46666393 85.50390625 217.09375 C84.73304688 216.248125 83.9621875 215.4025 83.16796875 214.53125 C82.41257812 213.726875 81.6571875 212.9225 80.87890625 212.09375 C80.02341187 211.10483765 80.02341187 211.10483765 79.15063477 210.09594727 C76.32695378 207.60728442 73.82075067 206.77154714 70.2421875 205.62109375 C69.603311 205.41190811 68.96443451 205.20272247 68.30619812 204.98719788 C66.27143233 204.32377859 64.23176449 203.67723867 62.19140625 203.03125 C60.84013151 202.59422062 59.48921587 202.15607925 58.13867188 201.71679688 C55.54447735 200.87446455 52.94821907 200.03908894 50.34985352 199.2097168 C47.47014758 198.28384384 44.60230908 197.33225975 41.73828125 196.359375 C38.78924725 195.36988049 35.86692085 194.53572127 32.81640625 193.90625 C32.06230469 193.74769531 31.30820312 193.58914063 30.53125 193.42578125 C29.98597656 193.31621094 29.44070313 193.20664062 28.87890625 193.09375 C28.87890625 192.43375 28.87890625 191.77375 28.87890625 191.09375 C28.21890625 191.09375 27.55890625 191.09375 26.87890625 191.09375 C26.79326416 190.3824292 26.70762207 189.6711084 26.61938477 188.93823242 C26.22994418 185.71883937 25.83573195 182.50004819 25.44140625 179.28125 C25.30669922 178.16169922 25.17199219 177.04214844 25.03320312 175.88867188 C24.90107422 174.81552734 24.76894531 173.74238281 24.6328125 172.63671875 C24.51236572 171.64696045 24.39191895 170.65720215 24.26782227 169.63745117 C23.93487259 166.97962629 23.93487259 166.97962629 22.87890625 164.09375 C22.21890625 164.09375 21.55890625 164.09375 20.87890625 164.09375 C20.85828125 163.289375 20.83765625 162.485 20.81640625 161.65625 C18.12506187 151.42914134 8.0961851 144.0273186 -0.12109375 138.09375 C0.44716278 132.55324887 2.50777142 128.05659034 4.87890625 123.09375 C9.19090782 123.58375018 11.50880146 124.42090827 14.87890625 127.09375 C15.86890625 127.09375 16.85890625 127.09375 17.87890625 127.09375 C18.20890625 128.08375 18.53890625 129.07375 18.87890625 130.09375 C20.50773022 131.53323118 20.50773022 131.53323118 22.44140625 132.78125 C23.08207031 133.21824219 23.72273438 133.65523438 24.3828125 134.10546875 C24.87652344 134.43160156 25.37023437 134.75773437 25.87890625 135.09375 C26.20890625 133.44375 26.53890625 131.79375 26.87890625 130.09375 C28.36390625 129.59875 28.36390625 129.59875 29.87890625 129.09375 C29.87890625 128.43375 29.87890625 127.77375 29.87890625 127.09375 C30.43578125 126.866875 30.99265625 126.64 31.56640625 126.40625 C34.52077697 124.72944499 36.50992968 122.52050648 38.87890625 120.09375 C39.74515625 119.413125 40.61140625 118.7325 41.50390625 118.03125 C43.75693885 116.19324972 45.32820232 114.54222989 46.87890625 112.09375 C46.87890625 111.43375 46.87890625 110.77375 46.87890625 110.09375 C47.45640625 109.866875 48.03390625 109.64 48.62890625 109.40625 C51.46325361 107.7528807 52.84652814 105.66411056 54.87890625 103.09375 C56.86151051 101.40642723 58.86214045 99.74008943 60.87890625 98.09375 C63.69247517 95.53177877 63.69247517 95.53177877 65.87890625 93.09375 C65.87890625 92.43375 65.87890625 91.77375 65.87890625 91.09375 C67.4611759 90.89747609 69.04479896 90.71209462 70.62890625 90.53125 C71.510625 90.42683594 72.39234375 90.32242188 73.30078125 90.21484375 C75.76323076 90.09918324 77.54428689 90.35736305 79.87890625 91.09375 C79.87890625 91.75375 79.87890625 92.41375 79.87890625 93.09375 C83.02205073 92.42709491 83.02205073 92.42709491 84.0546875 89.90625 C84.42980469 88.978125 84.80492187 88.05 85.19140625 87.09375 C88.22233788 80.08243828 91.46608768 73.50687245 97.87890625 69.09375 C97.43856633 67.11354579 97.43856633 67.11354579 95.87890625 65.09375 C93.29251385 63.83222391 90.62689796 62.93731955 87.87890625 62.09375 Z M-43.12109375 84.09375 C-42.46109375 86.07375 -41.80109375 88.05375 -41.12109375 90.09375 C-40.13109375 89.76375 -39.14109375 89.43375 -38.12109375 89.09375 C-37.90577967 86.99343321 -37.90577967 86.99343321 -39.49609375 85.46875 C-41.02077696 83.87843592 -41.02077696 83.87843592 -43.12109375 84.09375 Z M103.87890625 88.09375 C102.2208017 90.48622786 100.89099432 93.00489666 99.56640625 95.59375 C99.20740234 96.25761719 98.84839844 96.92148438 98.47851562 97.60546875 C96.65226996 101.09098905 95.87890625 103.08532453 95.87890625 107.09375 C96.86890625 107.09375 97.85890625 107.09375 98.87890625 107.09375 C99.12640625 107.691875 99.37390625 108.29 99.62890625 108.90625 C101.07083122 111.42961869 102.40440251 112.59405076 104.87890625 114.09375 C108.10199865 114.4248489 108.10199865 114.4248489 110.56640625 111.71875 C113.09924976 109.42668458 113.09924976 109.42668458 112.87890625 107.09375 C113.86890625 106.76375 114.85890625 106.43375 115.87890625 106.09375 C117.25086199 104.80019173 118.59073281 103.47076298 119.87890625 102.09375 C119.21890625 100.44375 118.55890625 98.79375 117.87890625 97.09375 C117.21890625 97.09375 116.55890625 97.09375 115.87890625 97.09375 C115.81703125 96.43375 115.75515625 95.77375 115.69140625 95.09375 C114.56684373 90.94151917 112.41803777 87.55074326 109.87890625 84.09375 C107.47049455 84.09375 105.49765528 86.61748826 103.87890625 88.09375 Z M-178.92626953 116.46435547 C-182.21012147 117.40604293 -185.50962792 118.28638221 -188.8112793 119.16333008 C-190.48512279 119.60825157 -192.15726125 120.05965108 -193.82739258 120.51831055 C-194.58947021 120.72367432 -195.35154785 120.92903809 -196.13671875 121.140625 C-196.80993164 121.32463867 -197.48314453 121.50865234 -198.17675781 121.69824219 C-200.12109375 122.09375 -200.12109375 122.09375 -204.12109375 122.09375 C-203.05985388 125.27746962 -201.87331257 126.78196594 -199.68359375 129.28125 C-199.06613281 129.99667969 -198.44867188 130.71210938 -197.8125 131.44921875 C-196.27528592 133.32611735 -196.27528592 133.32611735 -194.12109375 133.09375 C-194.93359375 136.53125 -194.93359375 136.53125 -196.12109375 140.09375 C-197.11109375 140.42375 -198.10109375 140.75375 -199.12109375 141.09375 C-199.45109375 142.74375 -199.78109375 144.39375 -200.12109375 146.09375 C-200.78109375 146.09375 -201.44109375 146.09375 -202.12109375 146.09375 C-202.12109375 147.41375 -202.12109375 148.73375 -202.12109375 150.09375 C-202.78109375 150.09375 -203.44109375 150.09375 -204.12109375 150.09375 C-208.84224272 165.97937703 -209.14477779 178.98899236 -201.12109375 194.09375 C-198.66351953 197.0552468 -198.66351953 197.0552468 -196.12109375 199.09375 C-193.36517229 201.75463969 -192.84923247 203.80087357 -192.62109375 207.53125 C-192.74741591 211.05104484 -192.94143696 211.87182102 -195.24609375 214.71875 C-196.66921875 215.894375 -196.66921875 215.894375 -198.12109375 217.09375 C-199.14161739 218.24250698 -200.14089349 219.41039943 -201.12109375 220.59375 C-204.2922057 224.34216694 -207.50507212 227.97496579 -211.55859375 230.78125 C-213.35215884 232.91085567 -213.35215884 232.91085567 -212.93945312 235.1159668 C-212.76220703 235.91687744 -212.58496094 236.71778809 -212.40234375 237.54296875 C-212.10638306 238.88403687 -212.10638306 238.88403687 -211.80444336 240.25219727 C-210.67916426 244.93141252 -209.46099958 249.57890314 -208.18359375 254.21875 C-207.93158203 255.15589844 -207.67957031 256.09304688 -207.41992188 257.05859375 C-206.26911004 261.26744523 -205.06312323 265.3945687 -203.49609375 269.46875 C-202.13170681 273.06577012 -201.33654961 276.44925795 -200.6484375 280.2109375 C-200.22438464 282.31725522 -200.22438464 282.31725522 -198.12109375 284.09375 C-198.02629787 279.41320329 -198.34337773 275.08103809 -199.12109375 270.46875 C-201.62260061 253.34164466 -201.62260061 253.34164466 -199.2109375 248.125 C-196.43247379 244.62288497 -192.57891161 241.90322701 -189.12109375 239.09375 C-187.43493593 237.44680515 -185.76539204 235.78248879 -184.12109375 234.09375 C-183.52296875 233.536875 -182.92484375 232.98 -182.30859375 232.40625 C-180.89745598 231.14156729 -180.89745598 231.14156729 -181.12109375 229.09375 C-180.13109375 229.09375 -179.14109375 229.09375 -178.12109375 229.09375 C-176.85888139 227.66545707 -175.60546456 226.22681216 -174.4296875 224.7265625 C-172.51189889 222.3336203 -170.28885584 220.26151209 -168.12109375 218.09375 C-166.69128722 216.58526342 -165.27554126 215.06337456 -163.87109375 213.53125 C-163.1853125 212.78746094 -162.49953125 212.04367187 -161.79296875 211.27734375 C-160.14633762 209.12672038 -159.52888894 207.73842175 -159.12109375 205.09375 C-158.46109375 205.09375 -157.80109375 205.09375 -157.12109375 205.09375 C-156.32046271 203.43137104 -155.53109007 201.76356875 -154.74609375 200.09375 C-154.30523437 199.165625 -153.864375 198.2375 -153.41015625 197.28125 C-148.94013518 186.228107 -147.93200741 171.96405315 -151.984375 160.59765625 C-154.04636876 156.05560126 -156.38686053 151.66015298 -158.79296875 147.29296875 C-160.12109375 144.09375 -160.12109375 144.09375 -160.125 141.34765625 C-158.7668817 138.29849571 -157.32010865 137.70179772 -154.30859375 136.34375 C-153.43589844 135.93640625 -152.56320313 135.5290625 -151.6640625 135.109375 C-149.48098293 134.23748454 -147.41468205 133.58561509 -145.12109375 133.09375 C-144.71890625 134.393125 -144.71890625 134.393125 -144.30859375 135.71875 C-143.14997388 139.01166964 -141.73899536 142.00502875 -140.12109375 145.09375 C-138.15650583 141.80110648 -137.87452108 139.33217171 -137.890625 135.5234375 C-137.89255859 134.46253906 -137.89449219 133.40164062 -137.89648438 132.30859375 C-137.90873047 131.20644531 -137.92097656 130.10429687 -137.93359375 128.96875 C-137.93423828 127.85886719 -137.93488281 126.74898437 -137.93554688 125.60546875 C-137.71141644 120.17906978 -137.71141644 120.17906978 -139.12109375 115.09375 C-151.90353464 110.39815947 -166.28095653 112.80711784 -178.92626953 116.46435547 Z M-76.12109375 114.09375 C-80.4046306 119.7299827 -82.52703834 125.67336188 -84.78515625 132.33984375 C-86.59524085 137.42607562 -88.77156409 142.30877597 -90.984375 147.23046875 C-92.30558606 150.04502325 -92.30558606 150.04502325 -92.12109375 153.09375 C-87.17109375 152.59875 -87.17109375 152.59875 -82.12109375 152.09375 C-82.34796875 150.7325 -82.57484375 149.37125 -82.80859375 147.96875 C-83.7655992 142.22671728 -81.22147929 138.66833483 -78 134.05859375 C-77.23558594 133.05957031 -76.47117187 132.06054688 -75.68359375 131.03125 C-74.92175781 130.02964844 -74.15992188 129.02804688 -73.375 127.99609375 C-71.90344176 126.1011756 -70.3914009 124.23682865 -68.8359375 122.41015625 C-66.82359343 120.17223526 -66.82359343 120.17223526 -67.12109375 117.09375 C-71.38482185 114.73464647 -71.38482185 114.73464647 -76.12109375 114.09375 Z M128.87890625 117.09375 C127.72697002 118.19154824 126.58255688 119.29724446 125.44140625 120.40625 C124.48427734 121.32857422 124.48427734 121.32857422 123.5078125 122.26953125 C121.65676445 124.10019056 121.65676445 124.10019056 120.87890625 127.09375 C122.36390625 128.08375 122.36390625 128.08375 123.87890625 129.09375 C126.51890625 126.45375 129.15890625 123.81375 131.87890625 121.09375 C130.88890625 119.77375 129.89890625 118.45375 128.87890625 117.09375 Z M-122.12109375 121.09375 C-122.12109375 131.65375 -122.12109375 142.21375 -122.12109375 153.09375 C-114.94098534 153.69003479 -114.94098534 153.69003479 -112.12109375 152.09375 C-111.02917189 150.078955 -111.02917189 150.078955 -110.02734375 147.61328125 C-109.63675781 146.69611328 -109.24617187 145.77894531 -108.84375 144.83398438 C-108.44027344 143.86783203 -108.03679687 142.90167969 -107.62109375 141.90625 C-107.21761719 140.95943359 -106.81414062 140.01261719 -106.3984375 139.03710938 C-104.45405721 134.43925962 -102.59755958 129.86819115 -101.12109375 125.09375 C-108.11705066 123.46136005 -115.00010694 122.28058114 -122.12109375 121.09375 Z M-239.12109375 133.09375 C-239.12109375 133.75375 -239.12109375 134.41375 -239.12109375 135.09375 C-240.11109375 135.42375 -241.10109375 135.75375 -242.12109375 136.09375 C-246.55379694 141.17121002 -249.57779211 146.49991788 -251.45703125 152.94140625 C-253.38485629 159.1898274 -256.79385704 164.26760393 -260.8515625 169.33203125 C-262.31477669 171.17799775 -262.31477669 171.17799775 -263.12109375 174.09375 C-263.78109375 174.09375 -264.44109375 174.09375 -265.12109375 174.09375 C-265.12109375 174.75375 -265.12109375 175.41375 -265.12109375 176.09375 C-265.69472656 176.3515625 -266.26835937 176.609375 -266.859375 176.875 C-269.32618668 178.2042664 -271.21277471 179.73779017 -273.30859375 181.59375 C-274.00339844 182.2021875 -274.69820313 182.810625 -275.4140625 183.4375 C-277.21128457 184.99870332 -277.21128457 184.99870332 -278.12109375 187.09375 C-269.97487125 187.9744227 -261.46815871 183.96768408 -254.82421875 179.484375 C-250.1509187 175.6685612 -247.87009416 170.63773879 -245.30859375 165.28125 C-240.11201826 154.82281541 -234.72983198 148.63760241 -224.13696289 143.78027344 C-220.37165245 142.14653952 -220.37165245 142.14653952 -218.1796875 138.8671875 C-218.16035156 138.28195313 -218.14101562 137.69671875 -218.12109375 137.09375 C-217.46109375 137.09375 -216.80109375 137.09375 -216.12109375 137.09375 C-214.36703241 135.02154224 -214.36703241 135.02154224 -212.62109375 132.40625 C-212.01265625 131.53613281 -211.40421875 130.66601562 -210.77734375 129.76953125 C-209.2237889 127.2596608 -208.119442 124.86416639 -207.12109375 122.09375 C-218.79110367 122.09375 -230.14359623 125.32313304 -239.12109375 133.09375 Z M-55.12109375 133.09375 C-55.78109375 134.74375 -56.44109375 136.39375 -57.12109375 138.09375 C-57.78109375 138.09375 -58.44109375 138.09375 -59.12109375 138.09375 C-60.44109375 140.40375 -61.76109375 142.71375 -63.12109375 145.09375 C-62.13109375 145.42375 -61.14109375 145.75375 -60.12109375 146.09375 C-59.83234375 146.91875 -59.54359375 147.74375 -59.24609375 148.59375 C-58.87484375 149.41875 -58.50359375 150.24375 -58.12109375 151.09375 C-55.57334069 151.98761164 -55.57334069 151.98761164 -53.12109375 152.09375 C-51.52697091 148.90550432 -52.0193464 145.46478338 -52.05859375 141.96875 C-52.06310547 141.21464844 -52.06761719 140.46054688 -52.07226562 139.68359375 C-52.08405876 137.82027873 -52.10199433 135.95700445 -52.12109375 134.09375 C-53.11109375 133.76375 -54.10109375 133.43375 -55.12109375 133.09375 Z M-132.12109375 170.09375 C-132.16190158 172.09333364 -132.16363731 174.09420254 -132.12109375 176.09375 C-131.02796875 176.609375 -129.93484375 177.125 -128.80859375 177.65625 C-122.35013241 180.88548067 -116.07662377 184.68392346 -110.4765625 189.25 C-108.17903124 191.26095675 -108.17903124 191.26095675 -105.12109375 192.09375 C-104.79109375 192.75375 -104.46109375 193.41375 -104.12109375 194.09375 C-102.80109375 194.09375 -101.48109375 194.09375 -100.12109375 194.09375 C-100.12109375 194.75375 -100.12109375 195.41375 -100.12109375 196.09375 C-95.72855602 197.65647189 -95.72855602 197.65647189 -91.12109375 198.09375 C-91.12109375 198.75375 -91.12109375 199.41375 -91.12109375 200.09375 C-84.94939921 202.27199513 -79.2541769 202.39420026 -72.74609375 202.34375 C-71.75609375 202.35148437 -70.76609375 202.35921875 -69.74609375 202.3671875 C-64.28891413 202.35278861 -59.3305904 201.90200584 -54.03710938 200.5703125 C-50.4441137 199.67664181 -46.79932615 199.44405785 -43.12109375 199.09375 C-43.12109375 198.43375 -43.12109375 197.77375 -43.12109375 197.09375 C-42.56421875 197.3 -42.00734375 197.50625 -41.43359375 197.71875 C-38.46155575 198.20070211 -36.80129434 197.35940028 -34.12109375 196.09375 C-34.81961555 192.21227318 -35.86606511 188.53884023 -37.05859375 184.78125 C-38.58035251 179.91162197 -39.95280286 175.05898626 -41.12109375 170.09375 C-45.93471988 169.13760314 -50.6080781 168.95137279 -55.49731445 168.96435547 C-56.31588425 168.96260315 -57.13445404 168.96085083 -57.97782898 168.95904541 C-60.66753291 168.95466473 -63.35717047 168.95755015 -66.046875 168.9609375 C-67.91920484 168.9602637 -69.79153459 168.95929304 -71.66386414 168.95803833 C-75.57840817 168.95656677 -79.49292933 168.95869973 -83.4074707 168.96337891 C-88.4360373 168.96909562 -93.46455075 168.96578153 -98.49311543 168.95980644 C-102.35426743 168.95620302 -106.21540669 168.95733806 -110.07655907 168.95993423 C-111.93180536 168.96060309 -113.78705279 168.95977651 -115.64229774 168.95745468 C-118.22551188 168.95492962 -120.80863815 168.95876574 -123.3918457 168.96435547 C-124.16428619 168.96233124 -124.93672668 168.96030701 -125.73257446 168.95822144 C-129.21820366 168.65407617 -129.21820366 168.65407617 -132.12109375 170.09375 Z M-219.12109375 207.09375 C-219.12109375 207.75375 -219.12109375 208.41375 -219.12109375 209.09375 C-219.63929688 209.20074219 -220.1575 209.30773437 -220.69140625 209.41796875 C-223.92010928 210.31598422 -226.91189604 211.59629506 -229.99609375 212.90625 C-231.78660156 213.65841797 -231.78660156 213.65841797 -233.61328125 214.42578125 C-237.14237945 215.99654826 -237.14237945 215.99654826 -240.19140625 218.16796875 C-243.12109375 220.09375 -243.12109375 220.09375 -246.23046875 221.03515625 C-249.84893558 222.36029748 -251.07068577 223.97135618 -253.37109375 227.03125 C-257.42203491 232.26227794 -261.71801037 237.0709964 -266.25 241.87890625 C-268.33620645 243.8651489 -268.33620645 243.8651489 -268.12109375 246.09375 C-269.60609375 246.58875 -269.60609375 246.58875 -271.12109375 247.09375 C-271.26546875 247.733125 -271.40984375 248.3725 -271.55859375 249.03125 C-271.74421875 249.711875 -271.92984375 250.3925 -272.12109375 251.09375 C-273.45442708 251.76041667 -274.78776042 252.42708333 -276.12109375 253.09375 C-276.48271404 254.41969105 -276.81837414 255.75313457 -277.12109375 257.09375 C-278.60609375 257.58875 -278.60609375 257.58875 -280.12109375 258.09375 C-280.12109375 258.75375 -280.12109375 259.41375 -280.12109375 260.09375 C-281.60609375 260.58875 -281.60609375 260.58875 -283.12109375 261.09375 C-287.31800358 265.47373501 -287.31800358 265.47373501 -289.12109375 271.09375 C-288.46109375 271.09375 -287.80109375 271.09375 -287.12109375 271.09375 C-286.79109375 272.08375 -286.46109375 273.07375 -286.12109375 274.09375 C-285.62609375 273.10375 -285.62609375 273.10375 -285.12109375 272.09375 C-283.78776042 271.42708333 -282.45442708 270.76041667 -281.12109375 270.09375 C-278.85956448 268.38381323 -276.70328691 266.69556765 -274.73046875 264.65625 C-272.29996945 262.29654195 -269.52535055 260.45027779 -266.765625 258.49609375 C-266.22292969 258.03332031 -265.68023437 257.57054687 -265.12109375 257.09375 C-265.12109375 256.43375 -265.12109375 255.77375 -265.12109375 255.09375 C-264.32445312 254.74570312 -264.32445312 254.74570312 -263.51171875 254.390625 C-260.37958844 252.69149549 -257.6631917 250.53861208 -254.87109375 248.34375 C-253.70576714 247.44135721 -252.54040267 246.53901331 -251.375 245.63671875 C-249.49595244 244.17355697 -247.62990138 242.69899806 -245.7734375 241.20703125 C-241.40953025 237.76275456 -237.4260899 235.79892733 -232.12109375 234.09375 C-232.05921875 233.083125 -231.99734375 232.0725 -231.93359375 231.03125 C-231.30647402 226.55961369 -229.12903666 223.38857764 -226.12109375 220.09375 C-224.63609375 219.10375 -224.63609375 219.10375 -223.12109375 218.09375 C-223.12109375 217.43375 -223.12109375 216.77375 -223.12109375 216.09375 C-222.13109375 215.76375 -221.14109375 215.43375 -220.12109375 215.09375 C-218.41329402 213.46925757 -216.74558618 211.80154973 -215.12109375 210.09375 C-214.46109375 209.43375 -213.80109375 208.77375 -213.12109375 208.09375 C-213.12109375 207.10375 -213.12109375 206.11375 -213.12109375 205.09375 C-215.58388176 205.09375 -216.97333494 205.94827863 -219.12109375 207.09375 Z M14.87890625 232.09375 C18.63035953 245.22383648 24.94902577 256.80132907 33.87890625 267.09375 C34.53890625 268.08375 35.19890625 269.07375 35.87890625 270.09375 C36.53890625 270.09375 37.19890625 270.09375 37.87890625 270.09375 C38.13671875 270.81949219 38.39453125 271.54523438 38.66015625 272.29296875 C39.93133124 275.21422667 41.41907027 277.40247649 43.37890625 279.90625 C43.98734375 280.69644531 44.59578125 281.48664063 45.22265625 282.30078125 C45.76921875 282.89246094 46.31578125 283.48414063 46.87890625 284.09375 C47.53890625 284.09375 48.19890625 284.09375 48.87890625 284.09375 C49.14703125 284.7125 49.41515625 285.33125 49.69140625 285.96875 C50.83447473 288.3932733 50.83447473 288.3932733 53.87890625 290.09375 C52.21511248 284.61933178 49.88726494 279.53106008 47.50390625 274.34375 C44.76983389 268.38347226 42.1534299 262.41126965 39.77441406 256.29931641 C38.65951938 253.55341712 37.38054281 250.93114784 35.99609375 248.3125 C35.12084785 246.5742494 34.33045503 244.79323094 33.57421875 243 C31.24565401 237.15935852 31.24565401 237.15935852 26.92578125 232.8828125 C24.842983 232.3342893 23.02967892 232.11935444 20.87890625 232.09375 C19.14640625 232.031875 19.14640625 232.031875 17.37890625 231.96875 C16.55390625 232.01 15.72890625 232.05125 14.87890625 232.09375 Z M-198.12109375 284.09375 C-197.12109375 288.09375 -197.12109375 288.09375 -197.12109375 288.09375 Z " fill="#0B0B0B" transform="translate(333.12109375,88.90625)"/>
<path d="M0 0 C0.33 0.99 0.66 1.98 1 3 C0.01 3.33 -0.98 3.66 -2 4 C-2.70557724 5.31315764 -3.36877128 6.64952878 -4 8 C-5.38867188 9.61572266 -5.38867188 9.61572266 -6.96875 11.1640625 C-7.53980469 11.72867187 -8.11085937 12.29328125 -8.69921875 12.875 C-9.29347656 13.4525 -9.88773438 14.03 -10.5 14.625 C-11.09425781 15.21023438 -11.68851563 15.79546875 -12.30078125 16.3984375 C-13.40203177 17.48228677 -14.50532667 18.56406561 -15.61132812 19.64306641 C-16.74852847 20.75427589 -17.87571998 21.87571998 -19 23 C-18.57628489 18.19789547 -16.2889016 15.32585555 -13 12 C-11.35360035 10.64172029 -9.68704193 9.30745749 -8 8 C-6.31337542 6.35353315 -4.64488294 4.68816933 -3 3 C-2 2 -1 1 0 0 Z " fill="#333333" transform="translate(151,320)"/>
<path d="M0 0 C-0.60328125 0.24234375 -1.2065625 0.4846875 -1.828125 0.734375 C-6.33502207 2.62436409 -9.79028287 4.1958908 -13 8 C-16.66666667 11.88888889 -16.66666667 11.88888889 -20 13 C-20 13.66 -20 14.32 -20 15 C-20.66 15 -21.32 15 -22 15 C-20.01596462 8.68716016 -15.28654896 4.73926634 -10 1 C-6.1182997 -0.66358584 -4.00548142 -1.19733746 0 0 Z " fill="#484747" transform="translate(313,86)"/>
<path d="M0 0 C0.66 0.33 1.32 0.66 2 1 C-1.625 6.875 -1.625 6.875 -5 8 C-7.43322344 10.21202131 -9.16681786 12.25022679 -11 15 C-11.99 15 -12.98 15 -14 15 C-11.37198148 8.54940909 -5.2026757 4.3630508 0 0 Z " fill="#353334" transform="translate(89,203)"/>
<path d="M0 0 C2.46542986 2.46542986 2.2600215 3.89290254 2.2734375 7.26367188 C2.26570312 7.93978516 2.25796875 8.61589844 2.25 9.3125 C2.25515625 10.62863281 2.2603125 11.94476563 2.265625 13.30078125 C2.02139485 16.70204521 1.47970157 18.96426305 0 22 C-0.85305168 19.09330538 -1.07289715 16.68951127 -0.87890625 13.671875 C-0.83056641 12.87265625 -0.78222656 12.0734375 -0.73242188 11.25 C-0.67634766 10.425 -0.62027344 9.6 -0.5625 8.75 C-0.51029297 7.90953125 -0.45808594 7.0690625 -0.40429688 6.203125 C-0.27504311 4.1350648 -0.13825726 2.0674778 0 0 Z " fill="#323030" transform="translate(183,257)"/>
<path d="M0 0 C0.66 0.33 1.32 0.66 2 1 C0.38405168 3.04119788 -1.2856382 5.04072937 -3 7 C-3.66 7 -4.32 7 -5 7 C-4.67 8.32 -4.34 9.64 -4 11 C-6.66666667 12.33333333 -9.33333333 13.66666667 -12 15 C-10.53162104 11.80024884 -8.72160654 9.15165744 -6.5625 6.375 C-5.96566406 5.59898437 -5.36882812 4.82296875 -4.75390625 4.0234375 C-3 2 -3 2 0 0 Z " fill="#4D4C4E" transform="translate(102,235)"/>
<path d="M0 0 C0.99 1.485 0.99 1.485 2 3 C5.46712111 4.15570704 8.5414956 4.32835293 12.1875 4.5625 C14.09595703 4.68818359 14.09595703 4.68818359 16.04296875 4.81640625 C17.01878906 4.87699219 17.99460937 4.93757812 19 5 C19.33 4.01 19.66 3.02 20 2 C20.33 2.66 20.66 3.32 21 4 C21.66 4.33 22.32 4.66 23 5 C15.78438287 7.40520571 7.42457772 7.55398138 0 6 C0 4.02 0 2.04 0 0 Z " fill="#454547" transform="translate(240,143)"/>
<path d="M0 0 C7.34918342 -0.43230491 13.90215087 1.18225815 21 3 C21 3.33 21 3.66 21 4 C14.22700102 4.25939145 7.50289716 4.12822089 1 2 C0.67 1.34 0.34 0.68 0 0 Z " fill="#626162" transform="translate(353,303)"/>
<path d="M0 0 C2.9719385 1.12451727 5.33440687 2.22293791 8 4 C7.67 4.66 7.34 5.32 7 6 C5.02 5.01 3.04 4.02 1 3 C0.896875 3.9075 0.79375 4.815 0.6875 5.75 C-0.00414949 9.01961575 -0.82134921 10.53717737 -3 13 C-2.45144652 8.428721 -1.58255197 4.32564205 0 0 Z " fill="#545355" transform="translate(198,282)"/>
<path d="M0 0 C2.0625 0.4375 2.0625 0.4375 4 1 C4 1.66 4 2.32 4 3 C-1.38490641 3.91657981 -6.54230189 4.11138159 -12 4 C-9.60175053 1.60175053 -8.72664782 1.68563796 -5.4375 1.4375 C-2.41952212 1.41550697 -2.41952212 1.41550697 0 0 Z " fill="#4F4D4F" transform="translate(251,112)"/>
<path d="M0 0 C0.66 0.66 1.32 1.32 2 2 C-5.01805857 3.10087193 -11.90565767 3.09733092 -19 3 C-13.70383532 -0.53077646 -6.28560341 -0.75529654 0 0 Z " fill="#6A676A" transform="translate(283,109)"/>
<path d="M0 0 C0.33 0.99 0.66 1.98 1 3 C-0.78520561 5.00611734 -2.57758712 7.0048717 -4.375 9 C-4.88289063 9.57234375 -5.39078125 10.1446875 -5.9140625 10.734375 C-7.23504905 12.19441277 -8.61400799 13.60152157 -10 15 C-10.66 15 -11.32 15 -12 15 C-12 13 -12 13 -9.75 10.6875 C-8.38875 9.3571875 -8.38875 9.3571875 -7 8 C-5.65705519 6.34106818 -4.32255312 4.67523395 -3 3 C-2.01769502 1.9826127 -1.02530403 0.97403883 0 0 Z " fill="#303030" transform="translate(46,328)"/>
<path d="M0 0 C1.32 0.66 2.64 1.32 4 2 C3.46324097 5.85103301 1.88399077 7.31797587 -1.0625 9.75 C-2.16271484 10.67039063 -2.16271484 10.67039063 -3.28515625 11.609375 C-3.85105469 12.06828125 -4.41695313 12.5271875 -5 13 C-5 12.01 -5 11.02 -5 10 C-4.175 9.195625 -3.35 8.39125 -2.5 7.5625 C0.46554923 5.11947885 0.46554923 5.11947885 0 1 C0 0.67 0 0.34 0 0 Z " fill="#626063" transform="translate(429,154)"/>
<path d="M0 0 C1.32 0.33 2.64 0.66 4 1 C4.12375 1.804375 4.2475 2.60875 4.375 3.4375 C4.684375 4.7059375 4.684375 4.7059375 5 6 C5.66 6.33 6.32 6.66 7 7 C7.703125 8.7421875 7.703125 8.7421875 8.25 10.875 C8.44078125 11.57367188 8.6315625 12.27234375 8.828125 12.9921875 C9 15 9 15 7 18 C6.67 15.36 6.34 12.72 6 10 C5.34 10 4.68 10 4 10 C3.79503906 9.44570312 3.59007812 8.89140625 3.37890625 8.3203125 C3.10949219 7.59585938 2.84007812 6.87140625 2.5625 6.125 C2.29566406 5.40570313 2.02882813 4.68640625 1.75390625 3.9453125 C1.02083146 1.96351155 1.02083146 1.96351155 0 0 Z " fill="#464646" transform="translate(350,243)"/>
<path d="M0 0 C0.66 0.33 1.32 0.66 2 1 C1.67 2.98 1.34 4.96 1 7 C0.01 7 -0.98 7 -2 7 C-4.18777466 8.9375006 -4.18777466 8.9375006 -6 11 C-6 10.01 -6 9.02 -6 8 C-6.66 7.67 -7.32 7.34 -8 7 C-7.50628906 6.66226562 -7.01257812 6.32453125 -6.50390625 5.9765625 C-5.86324219 5.53054688 -5.22257812 5.08453125 -4.5625 4.625 C-3.92441406 4.18414062 -3.28632812 3.74328125 -2.62890625 3.2890625 C-0.86259072 2.07839147 -0.86259072 2.07839147 0 0 Z " fill="#373638" transform="translate(68,344)"/>
<path d="M0 0 C0.33 0.99 0.66 1.98 1 3 C-0.40445835 5.2636564 -2.1967913 7.0208685 -4 9 C-5.32 8.67 -6.64 8.34 -8 8 C-8.33 8.99 -8.66 9.98 -9 11 C-9.66 10.67 -10.32 10.34 -11 10 C-7.50640535 6.40365256 -3.88901869 3.16548033 0 0 Z " fill="#4C4B4C" transform="translate(43,260)"/>
<path d="M0 0 C0 0.33 0 0.66 0 1 C-1.98 1.33 -3.96 1.66 -6 2 C-6 2.99 -6 3.98 -6 5 C-7.32 5 -8.64 5 -10 5 C-10 4.34 -10 3.68 -10 3 C-10.66 3 -11.32 3 -12 3 C-12 2.34 -12 1.68 -12 1 C-7.58774263 -0.47075246 -4.51718381 -1.36884358 0 0 Z " fill="#49494A" transform="translate(411,179)"/>
<path d="M0 0 C-0.33 1.32 -0.66 2.64 -1 4 C-1.99 4 -2.98 4 -4 4 C-4.0825 4.5775 -4.165 5.155 -4.25 5.75 C-5.20531013 8.6159304 -6.78469173 9.9990764 -9 12 C-9.66 11.67 -10.32 11.34 -11 11 C-10.06558465 9.72689688 -9.12732889 8.456612 -8.1875 7.1875 C-7.66542969 6.47980469 -7.14335938 5.77210938 -6.60546875 5.04296875 C-2.64244742 0 -2.64244742 0 0 0 Z " fill="#626264" transform="translate(112,305)"/>
<path d="M0 0 C2.52090778 -0.0272367 5.04151457 -0.04695207 7.5625 -0.0625 C8.61920898 -0.07506836 8.61920898 -0.07506836 9.69726562 -0.08789062 C14.24024798 -0.10882603 18.51784892 0.25199318 23 1 C23 1.33 23 1.66 23 2 C14.94313304 3.1736381 7.95420855 2.67968453 0 1 C0 0.67 0 0.34 0 0 Z " fill="#575757" transform="translate(246,307)"/>
<path d="M0 0 C0 2.67884659 -0.11409459 4.50335747 -1 7 C-4 9 -4 9 -6.1875 8.625 C-6.785625 8.41875 -7.38375 8.2125 -8 8 C-5.58443874 4.80800833 -3.31996462 2.25283313 0 0 Z " fill="#515050" transform="translate(392,188)"/>
<path d="M0 0 C0 0.66 0 1.32 0 2 C2.475 2.99 2.475 2.99 5 4 C5 4.99 5 5.98 5 7 C1 7 1 7 -2 5 C-2 4.34 -2 3.68 -2 3 C-2.66 2.34 -3.32 1.68 -4 1 C-2 0 -2 0 0 0 Z " fill="#646064" transform="translate(282,165)"/>
<path d="M0 0 C1 2 1 2 0.1875 4.5 C-1 7 -1 7 -3 9 C-5.125 9.625 -5.125 9.625 -7 10 C-6.34 8.35 -5.68 6.7 -5 5 C-4.34 5 -3.68 5 -3 5 C-2.814375 4.0409375 -2.814375 4.0409375 -2.625 3.0625 C-2.41875 2.381875 -2.2125 1.70125 -2 1 C-1.34 0.67 -0.68 0.34 0 0 Z " fill="#636364" transform="translate(268,135)"/>
<path d="M0 0 C1.65 0.33 3.3 0.66 5 1 C3.02 1.99 3.02 1.99 1 3 C1.165 3.7425 1.33 4.485 1.5 5.25 C2 8 2 8 2 12 C1.34 12 0.68 12 0 12 C-0.19477739 10.37585622 -0.38059458 8.75063577 -0.5625 7.125 C-0.66691406 6.22007812 -0.77132812 5.31515625 -0.87890625 4.3828125 C-1 2 -1 2 0 0 Z " fill="#3A383A" transform="translate(238,131)"/>
<path d="M0 0 C-2.92324707 1.94883138 -4.51083018 2.48079727 -7.875 3.125 C-8.71804687 3.29257813 -9.56109375 3.46015625 -10.4296875 3.6328125 C-12.99151915 3.99878845 -15.41609989 4.06482904 -18 4 C-12.64766505 0.4317767 -6.36973531 -0.32665309 0 0 Z " fill="#6B6B6B" transform="translate(169,184)"/>
<path d="M0 0 C0 0.99 0 1.98 0 3 C-1.4096347 3.70180531 -2.82807641 4.38593958 -4.25 5.0625 C-5.03890625 5.44535156 -5.8278125 5.82820312 -6.640625 6.22265625 C-9 7 -9 7 -13 6 C-8.71 4.02 -4.42 2.04 0 0 Z " fill="#535153" transform="translate(384,143)"/>
<path d="M0 0 C0.66 0.33 1.32 0.66 2 1 C-1.13605376 5.51591742 -4.1268348 7.6536612 -9 10 C-9.66 9.67 -10.32 9.34 -11 9 C-7.37 6.03 -3.74 3.06 0 0 Z " fill="#5A585A" transform="translate(81,334)"/>
<path d="M0 0 C0.66 0.33 1.32 0.66 2 1 C1.67 2.32 1.34 3.64 1 5 C0.34 5 -0.32 5 -1 5 C-1 5.99 -1 6.98 -1 8 C-1.66 8 -2.32 8 -3 8 C-3 8.99 -3 9.98 -3 11 C-3.66 11 -4.32 11 -5 11 C-4.54663921 6.12637153 -3.2910841 3.60957611 0 0 Z " fill="#5B5A5B" transform="translate(100,265)"/>
<path d="M0 0 C0.66 0.33 1.32 0.66 2 1 C0.33333333 2.66666667 -1.33333333 4.33333333 -3 6 C-4.32 6 -5.64 6 -7 6 C-7.33 6.66 -7.66 7.32 -8 8 C-8.66 8 -9.32 8 -10 8 C-8.61469871 4.57282232 -7.32522773 3.2706507 -4 1.6875 C-3.29875 1.34074219 -2.5975 0.99398438 -1.875 0.63671875 C-1.25625 0.42660156 -0.6375 0.21648437 0 0 Z " fill="#403E43" transform="translate(80,293)"/>
<path d="M0 0 C0.66 0 1.32 0 2 0 C1.43463094 3.27914055 0.65072255 4.95382821 -2 7 C-4.48046875 7.29296875 -4.48046875 7.29296875 -7.1875 7.1875 C-8.53908203 7.14689453 -8.53908203 7.14689453 -9.91796875 7.10546875 C-10.60503906 7.07066406 -11.29210937 7.03585938 -12 7 C-12 6.67 -12 6.34 -12 6 C-11.37351562 5.86722656 -10.74703125 5.73445312 -10.1015625 5.59765625 C-9.28429687 5.42105469 -8.46703125 5.24445313 -7.625 5.0625 C-6.81289063 4.88847656 -6.00078125 4.71445313 -5.1640625 4.53515625 C-2.970537 4.07669307 -2.970537 4.07669307 -1 3 C-0.67 2.01 -0.34 1.02 0 0 Z " fill="#747274" transform="translate(325,125)"/>
<path d="M0 0 C0.99 0.66 1.98 1.32 3 2 C1.71372289 3.17260611 0.42080217 4.3379283 -0.875 5.5 C-1.59429687 6.1496875 -2.31359375 6.799375 -3.0546875 7.46875 C-5 9 -5 9 -7 9 C-5.44499019 5.18315774 -2.96404505 2.80804268 0 0 Z " fill="#525252" transform="translate(77,358)"/>
<path d="M0 0 C-0.66 0 -1.32 0 -2 0 C-2 0.66 -2 1.32 -2 2 C-3.65 2.33 -5.3 2.66 -7 3 C-7 3.66 -7 4.32 -7 5 C-8.32 4.67 -9.64 4.34 -11 4 C-11 3.34 -11 2.68 -11 2 C-3.57142857 -1.57142857 -3.57142857 -1.57142857 0 0 Z " fill="#676268" transform="translate(238,117)"/>
<path d="M0 0 C5.56322513 0.8429129 11.34502637 2.48503257 15 7 C11.14974121 6.39644592 8.13898841 5.23227397 4.6875 3.4375 C3.80449219 2.98246094 2.92148437 2.52742188 2.01171875 2.05859375 C1.34785156 1.70925781 0.68398438 1.35992187 0 1 C0 0.67 0 0.34 0 0 Z " fill="#4F4E4E" transform="translate(409,125)"/>
<path d="M0 0 C0.66 0.33 1.32 0.66 2 1 C-1.32307692 6.78461538 -1.32307692 6.78461538 -4.75 7.875 C-5.4925 7.91625 -6.235 7.9575 -7 8 C-6.02133662 6.85373678 -5.04205413 5.70800212 -4.0625 4.5625 C-3.51722656 3.92441406 -2.97195312 3.28632813 -2.41015625 2.62890625 C-1.63204305 1.73008851 -0.84063472 0.84063472 0 0 Z " fill="#747475" transform="translate(58,352)"/>
<path d="M0 0 C-2.59901958 1.73267972 -4.13842116 2.48482049 -7.0625 3.25 C-7.75472656 3.44078125 -8.44695312 3.6315625 -9.16015625 3.828125 C-9.76730469 3.88484375 -10.37445313 3.9415625 -11 4 C-11.66 3.34 -12.32 2.68 -13 2 C-8.11922548 -0.44038726 -5.47332932 -1.46845421 0 0 Z " fill="#504F4F" transform="translate(471,362)"/>
<path d="M0 0 C1.60875 0.2784375 1.60875 0.2784375 3.25 0.5625 C6.40391546 0.9304568 8.09818492 1.04465343 11 0 C11 0.66 11 1.32 11 2 C7.21812119 3.83691257 5.05431692 4.15837626 1 3 C0.67 2.01 0.34 1.02 0 0 Z " fill="#676266" transform="translate(444,347)"/>
<path d="M0 0 C0.33 0.66 0.66 1.32 1 2 C-0.8125 5 -0.8125 5 -3 8 C-3.99 8 -4.98 8 -6 8 C-4.55746343 4.63408134 -2.66735273 2.48952921 0 0 Z " fill="#565656" transform="translate(383,197)"/>
<path d="M0 0 C1.6274637 0.61855631 3.25190356 1.24507305 4.875 1.875 C5.77992188 2.22304687 6.68484375 2.57109375 7.6171875 2.9296875 C10 4 10 4 12 6 C7.43545749 5.45660208 4.0271824 4.20536179 0 2 C0 1.34 0 0.68 0 0 Z " fill="#5C5C5C" transform="translate(222,166)"/>
<path d="M0 0 C0.99 0.33 1.98 0.66 3 1 C2.34 1 1.68 1 1 1 C0.01 3.97 -0.98 6.94 -2 10 C-2.66 8.68 -3.32 7.36 -4 6 C-2.87755007 3.70165014 -1.81522119 1.81522119 0 0 Z " fill="#686768" transform="translate(344,125)"/>
<path d="M0 0 C0.33 0.66 0.66 1.32 1 2 C-0.65 3.32 -2.3 4.64 -4 6 C-4.99 5.34 -5.98 4.68 -7 4 C-5 1 -5 1 -2.375 0.3125 C-1.59125 0.209375 -0.8075 0.10625 0 0 Z " fill="#36363A" transform="translate(55,344)"/>
<path d="M0 0 C0.33 1.32 0.66 2.64 1 4 C-1.31 5.65 -3.62 7.3 -6 9 C-6.66 8.67 -7.32 8.34 -8 8 C-5.33333333 5.33333333 -2.66666667 2.66666667 0 0 Z " fill="#303030" transform="translate(166,305)"/>
<path d="M0 0 C1.64767247 0.28109113 3.29313145 0.57518526 4.9375 0.875 C5.85402344 1.03742188 6.77054687 1.19984375 7.71484375 1.3671875 C8.46894531 1.57601563 9.22304688 1.78484375 10 2 C10.33 2.66 10.66 3.32 11 4 C8.69 4 6.38 4 4 4 C4 3.34 4 2.68 4 2 C3.01 2.33 2.02 2.66 1 3 C0.67 2.01 0.34 1.02 0 0 Z " fill="#787779" transform="translate(341,299)"/>
<path d="M0 0 C1.9375 0.8125 1.9375 0.8125 4 2 C4.33 2.99 4.66 3.98 5 5 C0.545 5.495 0.545 5.495 -4 6 C-1 4 -1 4 1 4 C0.67 2.68 0.34 1.36 0 0 Z " fill="#525253" transform="translate(298,281)"/>
<path d="M0 0 C0.33 0 0.66 0 1 0 C1.49230769 6.4 1.49230769 6.4 -1 9.4375 C-1.99 10.2109375 -1.99 10.2109375 -3 11 C-3 8.04725901 -2.56108169 6.50941597 -1.5 3.8125 C-1.2215625 3.09707031 -0.943125 2.38164062 -0.65625 1.64453125 C-0.33140625 0.83048828 -0.33140625 0.83048828 0 0 Z " fill="#616062" transform="translate(69,225)"/>
<path d="M0 0 C2.43773135 2.43773135 2.61487376 3.61088906 3 7 C2.5625 10.3125 2.5625 10.3125 2 13 C1.67 13 1.34 13 1 13 C0.67 8.71 0.34 4.42 0 0 Z " fill="#8A868A" transform="translate(135,366)"/>
<path d="M0 0 C1.99097846 2.98646769 2.94124926 5.59687262 4 9 C1.03 8.505 1.03 8.505 -2 8 C-1.01 7.67 -0.02 7.34 1 7 C0.67 4.69 0.34 2.38 0 0 Z " fill="#3E3D3F" transform="translate(394,350)"/>
<path d="M0 0 C1 3 1 3 0.0625 5.1875 C-0.4634375 6.0846875 -0.4634375 6.0846875 -1 7 C-2.65 7 -4.3 7 -6 7 C-4.02 4.69 -2.04 2.38 0 0 Z " fill="#4A4A4A" transform="translate(59,312)"/>
<path d="M0 0 C2.475 0.495 2.475 0.495 5 1 C5.33 2.65 5.66 4.3 6 6 C5.01 5.67 4.02 5.34 3 5 C3 4.34 3 3.68 3 3 C2.34 3 1.68 3 1 3 C0.67 2.01 0.34 1.02 0 0 Z " fill="#636262" transform="translate(424,312)"/>
<path d="M0 0 C5.445 1.485 5.445 1.485 11 3 C11 3.33 11 3.66 11 4 C9.741875 4.04125 8.48375 4.0825 7.1875 4.125 C6.47980469 4.14820313 5.77210938 4.17140625 5.04296875 4.1953125 C3 4 3 4 0 2 C0 1.34 0 0.68 0 0 Z " fill="#737272" transform="translate(375,266)"/>
<path d="M0 0 C0.99 0.33 1.98 0.66 3 1 C3 1.66 3 2.32 3 3 C1.04072937 4.7143618 -0.95880212 6.38405168 -3 8 C-3.66 7.67 -4.32 7.34 -5 7 C-2.25 3.125 -2.25 3.125 0 2 C0 1.34 0 0.68 0 0 Z " fill="#5B5B60" transform="translate(126,211)"/>
<path d="M0 0 C2.97 0.495 2.97 0.495 6 1 C6.33 1.99 6.66 2.98 7 4 C6.01 4.99 5.02 5.98 4 7 C3.34 6.67 2.68 6.34 2 6 C2.66 4.68 3.32 3.36 4 2 C2.68 1.34 1.36 0.68 0 0 Z " fill="#595959" transform="translate(262,204)"/>
<path d="M0 0 C3.91211733 1.15585285 6.8745041 2.35534962 10 5 C9.01 5.495 9.01 5.495 8 6 C4.16917814 4.40382422 2.33343353 3.50015029 0 0 Z " fill="#707070" transform="translate(235,172)"/>
<path d="M0 0 C0 0.66 0 1.32 0 2 C-1.32 1.67 -2.64 1.34 -4 1 C-4.66 2.65 -5.32 4.3 -6 6 C-6.33 5.34 -6.66 4.68 -7 4 C-7.66 3.67 -8.32 3.34 -9 3 C-5.92807025 0.26939578 -4.09590633 -0.34132553 0 0 Z " fill="#313031" transform="translate(229,121)"/>
<path d="M0 0 C0.33 0.99 0.66 1.98 1 3 C0.195625 3.45375 -0.60875 3.9075 -1.4375 4.375 C-4.08856572 5.74725665 -4.08856572 5.74725665 -5 8 C-5.66 8 -6.32 8 -7 8 C-5.50902342 4.2047869 -3.24299151 2.38957269 0 0 Z " fill="#606060" transform="translate(151,320)"/>
<path d="M0 0 C1 2 1 2 0.375 4 C-1.39265071 6.57112831 -3.07589059 7.07659703 -6 8 C-4.02 5.36 -2.04 2.72 0 0 Z " fill="#454445" transform="translate(66,304)"/>
<path d="M0 0 C0.33 0.99 0.66 1.98 1 3 C0.01 3.99 -0.98 4.98 -2 6 C-2.99 5.67 -3.98 5.34 -5 5 C-3.35 3.35 -1.7 1.7 0 0 Z " fill="#666666" transform="translate(398,182)"/>
<path d="M0 0 C1.7074998 1.28062485 3.37373596 2.61767557 5 4 C5 4.66 5 5.32 5 6 C5.66 6 6.32 6 7 6 C6.67 6.66 6.34 7.32 6 8 C3.56070254 6.07423885 1.19909405 4.19909405 -1 2 C-0.67 1.34 -0.34 0.68 0 0 Z " fill="#686667" transform="translate(364,353)"/>
<path d="M0 0 C1.32 0.33 2.64 0.66 4 1 C4 1.66 4 2.32 4 3 C5.98 3 7.96 3 10 3 C10 3.33 10 3.66 10 4 C7.69 4.33 5.38 4.66 3 5 C2.67 4.01 2.34 3.02 2 2 C1.34 2 0.68 2 0 2 C0 1.34 0 0.68 0 0 Z " fill="#636264" transform="translate(238,286)"/>
<path d="M0 0 C0.33 0 0.66 0 1 0 C1 3.3 1 6.6 1 10 C-2 6 -2 6 -1.75 3.875 C-1 2 -1 2 0 0 Z " fill="#565556" transform="translate(194,230)"/>
<path d="M0 0 C0.66 0.33 1.32 0.66 2 1 C0.68 2.65 -0.64 4.3 -2 6 C-3.32 5.67 -4.64 5.34 -6 5 C-4.02 3.35 -2.04 1.7 0 0 Z " fill="#696869" transform="translate(369,211)"/>
<path d="M0 0 C0.99 0.33 1.98 0.66 3 1 C1.68 3.31 0.36 5.62 -1 8 C-1.66 7.01 -2.32 6.02 -3 5 C-2.34 5 -1.68 5 -1 5 C-0.67 3.35 -0.34 1.7 0 0 Z " fill="#444244" transform="translate(432,182)"/>
<path d="" fill="#FFFFFF" transform="translate(0,0)"/>
</svg>
